<?xml version="1.0" encoding="UTF-8" standalone="no"?>
<!DOCTYPE svg PUBLIC "-//W3C//DTD SVG 1.1//EN" "http://www.w3.org/Graphics/SVG/1.1/DTD/svg11.dtd">
<svg width="100%" height="100%" viewBox="0 0 80 95" version="1.1" xmlns="http://www.w3.org/2000/svg" xmlns:xlink="http://www.w3.org/1999/xlink" xml:space="preserve" xmlns:serif="http://www.serif.com/" style="fill-rule:evenodd;clip-rule:evenodd;stroke-linejoin:round;stroke-miterlimit:2;">
    <g transform="matrix(1,0,0,1,-47.582173,-44.969801)">
        <g transform="matrix(1,0,0,1,-572.85624,-8.430199)">
            <path d="M661.7,99.1C668.3,96.4 677.3,92.4 684.8,97.6C692,102.5 690.9,111.7 685.5,117.9C682,121.9 674.1,126.9 667.4,129.6C662.3,131.6 661.3,132.2 655.8,130.6C652.2,129.5 647.9,127.9 645,126.2C628.4,116.6 625.1,103.2 636.3,87.9C640.5,82.1 646.1,77.9 650.8,72.7C654.3,68.9 661.7,61.1 661.6,53.4C658.4,58.8 659.1,58.6 653.5,63.5C650.4,66.2 646.7,68.9 643.3,71.4C636.8,76.2 629.1,82.5 624.9,89.8C613.5,109.5 625.2,127.2 645.8,134C648.6,134.9 657.4,137.7 660.4,137.6C663.7,137.6 672.2,134.9 675.2,133.7C684.3,130 692.1,125 696.3,118C701.9,108.6 700.7,96.8 690.9,93.5C682.1,90.5 666.3,94.1 661.7,99.1" style="fill:rgb(204,54,52);"/>
        </g>
        <g transform="matrix(1,0,0,1,-572.85624,-8.430199)">
            <path d="M670.1,97.3C686.9,98.3 683,111.4 673.4,118.6C671.1,120.3 662.8,125.3 659.5,124.9C655.1,124.4 648,120.7 645.3,118.5C635.2,110.4 637.8,99.8 644.4,90.1C648.9,83.5 659.5,74.7 660.4,65C649.4,82.4 626,91.4 632.7,110.8C635.6,119.2 645.7,125.1 653.5,128.1C657.4,129.6 659.1,130.7 663.3,129.3C700.8,116 689,90.2 670.1,97.3" style="fill:rgb(236,101,37);"/>
        </g>
        <g transform="matrix(1,0,0,1,-572.85624,-8.430199)">
            <path d="M640,104.4C645.6,95.5 659,94.7 662.2,79.8C663,76.3 663,68.6 661.8,65.4C660.6,75.6 658.2,80.9 652.8,86.9C649.5,90.6 639.6,98 640,104.4" style="fill:rgb(236,101,37);"/>
        </g>
        <g transform="matrix(1,0,0,1,-572.85624,-8.430199)">
            <path d="M651.3,143L668.8,143L668.8,139.5L651.3,139.4L651.3,143Z" style="fill:rgb(204,54,52);"/>
        </g>
        <g transform="matrix(1,0,0,1,-572.85624,-8.430199)">
            <path d="M653.8,147.9L666.2,147.9L666.2,144.3L654,144.3L653.8,147.9Z" style="fill:rgb(204,54,52);"/>
        </g>
    </g>
</svg>
