<?xml version="1.0" encoding="UTF-8" standalone="no"?>
<!DOCTYPE svg PUBLIC "-//W3C//DTD SVG 1.1//EN" "http://www.w3.org/Graphics/SVG/1.1/DTD/svg11.dtd">
<svg width="100%" height="100%" viewBox="0 0 1000 1000" version="1.1" xmlns="http://www.w3.org/2000/svg" xmlns:xlink="http://www.w3.org/1999/xlink" xml:space="preserve" xmlns:serif="http://www.serif.com/" style="fill-rule:evenodd;clip-rule:evenodd;stroke-miterlimit:2.613;">
    <g transform="matrix(5.833844,0,0,5.833844,-3341.954012,-47.083897)">
        <path d="M687.1,107.7L687.8,110.2C687.8,110.9 687.8,112.3 688.2,112.9C689.2,112.5 689.1,111.6 689.9,108.5C690.6,108.3 690.4,108.5 691.5,108.2L690.4,109.1L691.1,113.1C692.1,112.4 691.9,108.5 692.8,106.2C693.2,105 693.1,105.8 694.3,105C692.5,105.1 688.4,106.9 687.1,107.7" style="fill:rgb(165,160,158);"/>
        <path d="M691.7,108.9L691.1,109.4L691.4,111C691.5,110.6 691.5,110.2 691.6,109.8C691.6,109.5 691.6,109.2 691.7,108.9M687.2,110.3L686.5,107.9L686.4,107.5L686.8,107.3C687.8,106.7 690.1,105.6 692.1,105C692.5,104.9 692.9,104.8 693.2,104.7C693.6,104.6 693.9,104.6 694.2,104.5L694.3,104.5L694.6,105.6C694,105.9 693.7,106 693.5,106L693.3,106.4C692.9,107.4 692.7,108.7 692.6,109.9C692.4,111.5 692.2,113 691.5,113.6L690.8,114.2L690.6,113.3L690,110.3L689.9,110.9C689.5,112.5 689.4,113.1 688.4,113.5L688,113.7L687.7,113.3C687.3,112.6 687.2,111.4 687.2,110.6L687.2,110.3ZM687.8,108L688.4,110.1L688.4,110.5C688.4,110.9 688.4,111.4 688.5,111.9C688.6,111.6 688.7,111.2 688.9,110.5C689,109.9 689.2,109.3 689.4,108.4L689.5,108.1L689.8,108C690.2,107.9 690.3,107.9 690.5,107.9C690.6,107.9 690.8,107.9 691.3,107.7L691.7,108.4C691.8,107.6 692,106.7 692.3,106C690.6,106.6 688.8,107.4 687.8,108" style="fill:rgb(165,160,158);fill-rule:nonzero;"/>
        <path d="M693.9,107.7C693.7,109 693.6,108.7 693.9,109.8C694.5,111.8 694.1,112.3 695.2,114.3C695.6,115 695.8,115.6 696.3,115.6C696.7,113.6 696.8,112 697.3,110.1C696.5,109.7 696.5,110 695.8,109.9C696.1,109.7 696.7,109.4 697.1,109.1C697.2,109.1 697.2,109 697.3,109L697.6,108.7C699.2,107.4 699.1,108.1 701,106.9C701,106.9 701.1,106.8 701.2,106.8L695.5,108.4C696.1,107.2 697.7,107.1 698.9,106.3C697,106.1 695.6,107.4 693.9,107.7" style="fill:rgb(165,160,158);"/>
        <path d="M693.2,108.4C693.2,108.2 693.3,108 693.3,107.7L693.4,107.3L693.8,107.2C694.4,107.1 695,106.8 695.6,106.6C696.6,106.2 697.6,105.7 698.9,105.8L699.2,106.8L699.1,106.8L701,106.3L701.5,107.3C701.4,107.4 701.3,107.4 701.3,107.5C700.4,108.1 699.9,108.3 699.4,108.4C699,108.5 698.6,108.7 697.9,109.3L697.5,109.7L697.6,109.8L698,110L697.9,110.4C697.6,111.4 697.5,112.4 697.3,113.4C697.2,114.2 697,115 696.9,115.8L696.8,116.3L696.3,116.3C695.6,116.3 695.3,115.7 694.9,115L694.7,114.7L694.7,114.6C694,113.2 693.8,112.6 693.7,111.7C693.6,111.3 693.5,110.7 693.3,110C693.1,109 693.1,109 693.2,108.4M694.4,108.2L694.3,108.6C694.2,109 694.2,109 694.4,109.6C694.6,110.4 694.7,110.9 694.8,111.4C694.9,112.2 695,112.8 695.7,114L695.7,114.1L695.9,114.4L696,114.5C696.1,114 696.2,113.6 696.2,113.1C696.3,112.2 696.5,111.4 696.7,110.5L696.5,110.5C696.3,110.5 696.1,110.6 695.7,110.5L695.5,109.5C695.7,109.4 695.9,109.2 696.2,109.1C696.4,109 696.6,108.9 696.8,108.7L696.9,108.6L695.6,109L694.4,109.3L694.9,108.2C694.9,108.1 695,108.1 695,108C694.8,108 694.6,108.1 694.4,108.2" style="fill:rgb(167,169,172);fill-rule:nonzero;"/>
        <path d="M702.1,111.8C702.8,111.6 702.9,111.5 703.7,111.2C703,112.5 701.2,112.6 702.7,115.4C703.4,116.7 702.7,115.6 703.4,116.2C703.7,114.9 703.7,108.7 706.4,110.4L705.8,110.9C705.7,110.9 705.7,111 705.6,111C705,111.4 705.3,111 704.5,111.6L704.9,115C705.3,116 704.7,115.4 705.6,115.9C706.1,114.9 705.7,115 706.3,112.5C706.6,111.3 707,109.9 707.3,109.1C705.9,109.3 705.4,109.5 704.2,110C702.7,110.5 702,110.2 702.1,111.8" style="fill:rgb(165,160,158);"/>
        <path d="M706.1,111.4L706,111.5C705.7,111.7 705.5,111.8 705.4,111.8C705.4,111.8 705.3,111.8 705.3,111.9L705.6,114.3C705.6,113.9 705.7,113.3 706,112.3C705.9,112 706,111.7 706.1,111.4M706.4,109.8L706.5,109.9L706.5,109.8L706.4,109.8ZM702.2,115.7C701.3,114 701.4,113.1 701.8,112.5L701.6,112.6L701.6,111.9C701.5,110.2 702,110.1 703.1,109.8C703.4,109.7 703.7,109.6 704.1,109.5C704.8,109.2 705.2,109.1 705.7,108.9C706.2,108.8 706.7,108.6 707.4,108.5L708.2,108.4L708,109.2C707.9,109.6 707.8,110.1 707.6,110.6C707.4,111.2 707.2,112 707,112.7C706.7,113.9 706.6,114.5 706.6,114.9C706.6,115.3 706.5,115.6 706.3,116.2L706.1,116.7L705.6,116.4C705.4,116.3 705.3,116.2 705.2,116.2C705.1,116.2 705,116.1 704.9,116C704.8,115.8 704.8,115.8 704.8,115.6C704.8,115.6 704.8,115.5 704.7,115.1L704.7,115L704.5,113.8C704.4,114.2 704.4,114.6 704.4,114.9C704.3,115.5 704.3,115.9 704.2,116.2L704.2,116.3L704.1,116.6C705.2,119.7 705.1,121 704.6,120.8C704.6,121 704.6,121 704.5,120.7C704,120.3 703.1,118.6 702.8,116.1C702.4,116.1 702.4,116 702.2,115.7M703.4,112.4C702.9,112.9 702.4,113.3 703,114.7C703.1,114 703.2,113.2 703.4,112.4M703.5,110.7L703.7,111C703.8,110.9 703.8,110.7 703.9,110.6C703.8,110.6 703.7,110.7 703.5,110.7" style="fill:rgb(165,160,158);fill-rule:nonzero;"/>
        <path d="M698.8,111.5L700.8,110.7C700.2,112.5 699.4,110.7 698.9,113C699.4,113.3 698.9,113.1 699.6,113.3C699.9,113.4 699.5,113.1 700.2,113.3C699.6,114.2 698.4,114.5 700,115.9C700.6,115.1 700.8,114 700.9,113C701.1,111.5 701.2,111.3 701.7,109.8L705,108.6C705.6,108.3 705.4,108.5 705.6,108C703.8,108.7 702.8,108.8 700,109.9C698.9,110.5 698.8,110.4 698.8,111.5" style="fill:rgb(165,160,158);"/>
        <path d="M698.8,111.5L700.8,110.7C700.2,112.5 699.4,110.7 698.9,113C699.4,113.3 698.9,113.1 699.6,113.3C699.9,113.4 699.5,113.1 700.2,113.3C699.6,114.2 698.4,114.5 700,115.9C700.6,115.1 700.8,114 700.9,113C701.1,111.5 701.2,111.3 701.7,109.8L705,108.6C705.6,108.3 705.4,108.5 705.6,108C703.8,108.7 702.8,108.8 700,109.9C698.9,110.5 698.8,110.4 698.8,111.5Z" style="fill:none;fill-rule:nonzero;stroke:rgb(167,169,172);stroke-width:1.24px;"/>
        <path d="M650,14.7L645.7,15.3L644.2,10C638.7,10.3 633.4,12.8 628.5,14L629.7,19.5L625.7,21.2L622.9,16.5C619.8,17.4 610.9,22.7 609,24.5L611.6,29.7C609.8,30.5 609.5,31.1 608.1,31.9C606.3,30.9 605.6,29.4 604,28.3C602,30.2 600.1,31.3 598,33.6C596,35.7 594.2,37.3 592.7,39.6C593.8,41.3 595.1,41.7 596.3,43.7C595.5,45 594.8,45.8 594.1,47.1C591.8,46.5 591.1,45.3 588.8,44.7C586.9,46.7 581.4,55.9 580.8,59L585.3,61.2L583.9,65.4L578.2,64.1C577,69.3 574.9,74 574.2,79.9L579.5,81.4L578.9,85.7L573.3,85.9C572.9,91.1 572.5,96.8 573.4,101.8C575.1,102.6 576.5,102.1 578.9,102.3L579.5,106.6L574.2,108.1C574.5,113.8 577.1,118.8 578.1,123.7L583.7,122.6L585.4,126.6C584.3,127.2 581.7,128.7 580.8,129.5C581.8,132.8 586.9,141.2 588.8,143.2L594,140.6C594.8,142.2 595.4,142.8 596.3,144.1C595.2,146 593.8,146.5 592.7,148.2C595.4,152.7 600.3,156 603.9,159.5L608,155.7C609.4,156.6 610.1,157.2 611.4,158.2L609,163.2C611,165.1 620,170.3 622.9,171.2C623.3,170.8 623.2,171 623.6,170.4C623.8,170.1 624.2,169.6 624.4,169.3C625.1,168.1 625.2,167.9 625.6,166.7L629.9,168.2L628.7,173.9C634.1,175.2 638.5,177.1 644.5,177.9L646,172.5L650.3,173.1C650.4,174.1 650.3,174.7 650.4,175.6C650.5,179.2 650.5,177.5 650.6,177.8L650.8,178.6C655.1,179.3 662.1,179.3 666.4,178.6L666.8,176.1C666.8,175 666.8,174.2 666.9,173.1L671.2,172.5L672.7,177.8C678.4,177.4 683.5,174.9 688.5,173.8L687.2,168.1L691.6,166.6C692.2,168.3 693.1,170 694.3,171.2C697.4,170.2 706.1,165.1 708,163.2C707.5,161.1 706.2,160.5 705.8,158.2C707,157.2 707.7,156.5 709,155.8C710.6,156.6 711.8,158 712.8,159.4C715.9,158.2 722.5,150.5 724.4,148.1C723.2,146.3 721.8,145.9 720.8,144C721.4,142.9 722.3,141.9 723.2,140.8C725.1,141 726.1,142.4 728.2,143C730.1,141 735.2,132.4 736.2,129.3C736.1,129.2 736,129 735.9,129.1L731.6,126.4L733.2,122.4L738.9,123.6C739.9,118.5 742.4,113.6 742.9,107.8L737.6,106.4L738.2,102.1C742,101.9 742.1,102.4 743.8,101.6C744.6,96.6 744.2,91 743.9,85.8L738.3,85.6L737.7,81.3L743.1,79.8C742.3,73.9 740.2,69.2 739.1,64.1L733.5,65.3L731.8,61.5L736.5,58.5C735.6,55.4 730.1,46.3 728.4,44.6C726.3,45.1 725.5,46.4 723.1,46.9C722.5,45.8 721.7,44.8 720.9,43.6L724.4,39.7C722.8,35.9 716.3,31.1 713.2,28.2L709.2,31.9L705.8,29.4C706.1,27.4 707.6,26.2 708.1,24.3C706.3,22.5 697.2,17.2 694.4,16.4C693.3,17.5 692.3,19.2 691.8,20.9L687.4,19.4L688.7,13.7C683.6,12.4 678.4,10.1 672.8,9.7L671.4,15L667,14.4C666.7,9.5 667.3,12.1 666.6,9.3C666.6,9.2 666.5,9 666.5,8.9C661.5,8.1 655.9,8.5 650.7,8.8L650,14.7Z" style="fill:rgb(53,52,52);"/>
        <path d="M651.1,39.1C636.9,41 624,48.1 615.4,58.7C607.1,69 600.7,83.6 603.1,101.4C607,129.5 632.6,153.2 665.6,149C693.3,145.5 717.9,119.2 713.3,86.6C710.3,65.4 696.2,48.6 676,41.6C668.4,38.9 659.6,37.9 651.1,39.1" style="fill:white;"/>
        <path d="M652,16.4L644.1,17.5L642.9,12.2C639.9,12.6 633.2,14.2 630.9,15.4L632.1,20.9L625,23.6C623.8,22.3 623,20.6 622.4,19.1C619.7,19.7 613.4,23.8 611.3,25.2L614,30.2C612.2,31.4 609.3,34.1 607.5,34.7L603.9,31C602.4,31.9 595.8,38.4 595.1,39.8L598.7,43.5C597.8,45.5 595.5,47.8 594.2,49.8L589.2,47.2C587.6,49.6 583.9,55.1 583.1,58.3L587.7,60.7L584.8,67.8L579.3,66.6C578.2,70.3 576.7,74.8 576.2,78.7L581.5,80.1L580.5,87.9L601.1,88.1C603.1,60.2 628.5,36.9 658,36.8C687.9,36.7 713.1,60 715.3,88L735.5,87.8C736,85.2 735.1,82.6 734.9,80L740.1,78.7C739.8,75.8 738.1,69.1 736.9,66.8L731.4,67.9L728.7,60.9L733.3,58.1C732.2,54.3 729,50.4 727.3,47.3L722.2,49.9C720.8,47.8 718.7,45.7 717.7,43.5L721.3,39.9C720.5,38.4 714,31.9 712.6,31.2L708.9,34.7C707.5,34.2 703.9,31.2 702.6,30.2L705.2,25.3C703,23.8 697.1,20 694.2,19.1L691.6,23.8L684.5,20.9L685.7,15.6C683.1,14.3 676.6,12.7 673.5,12.3L672.2,17.5L664.8,16.6C664.2,15.1 664.5,13 664.4,11L652,10.8L652,16.4Z" style="fill:white;"/>
        <g opacity="0.15">
            <g>
                <g>
                    <path d="M710.5,95.1C710.7,95.3 710.8,95.4 711,95.5C710.9,95.4 710.7,95.3 710.5,95.1M702.5,87C703.2,87.6 704.3,88.7 705.6,90.1L706.6,89.7C706.7,89.8 706.8,89.9 707,90.2C707.2,90.4 707.5,90.7 707.8,91C709.3,92.3 711.5,94 712.9,94.8C713.1,93.3 713.1,93.1 711.7,92.4L702.5,87ZM706.3,93.2C706.6,93.5 707,93.9 707.4,94.2C707.2,94 707.1,93.8 706.9,93.6C706.6,93.5 706.5,93.3 706.3,93.2M683.1,81.6C682.9,83.2 682.6,83.7 682.5,83.9C682.5,84 682.5,84.1 682.6,84.4L682.7,85.2C682.8,85.2 682.8,85.2 682.9,85.3L683,85.3C682.8,84.9 682.7,84.4 682.6,84L683.6,83.5C683.8,83.7 683.9,84 684,84.2C683.7,83.2 683.3,82.3 683.1,81.6M684.6,76.3C684.5,76.8 684.4,77.3 684.2,77.8C684.1,78 684.1,78.3 684,78.6C683.8,79.3 683.7,79.6 683.5,79.8C683.4,80 683.3,80.2 683.2,80.6L683.9,80.4C684,80.8 684.3,81.3 684.5,82C684.8,82.6 685.1,83.3 685.5,84.1C687.5,88 690.7,93.2 692.4,94.9C692.6,95.1 692.8,95.3 693,95.4C693.2,95.6 693.4,95.8 693.7,96.1L697.1,99.9L697.2,100C698.1,100.9 698.8,101.7 699.2,102.8C699.3,102.9 699.4,103 699.4,103.2C699.4,103.2 699.4,103.1 699.4,103.2C699.5,103.3 699.6,103.4 699.7,103.6L699.7,103.5C700.2,103.6 700.7,103.7 701.3,103.8C702.5,103.9 703.8,104 705.1,104.1C705.8,104.1 706.5,104.2 707.1,104.2C707.2,104.2 707.6,104.2 707.9,104.3C708.9,104.4 710.2,104.5 710.9,104.4C711.9,104.3 711.9,103.7 711.9,102.7L711.9,102.4C711.3,102.1 710.7,101.6 710.1,101.2C709.4,100.7 708.6,100.1 707.9,99.5C704,96.3 699.8,91.9 698.5,88.5L699.2,88.2C699,87.9 698.7,87.5 698.4,87L699.2,86.3C699.8,86.7 700.3,87.2 700.7,87.7L701.2,87L700.6,86.7C699.4,86 698.4,85.6 697.4,85.2C696,84.7 694.7,84.2 693.2,82.9C692.8,82.6 692.5,82.3 692.2,82C691.7,81.5 691.2,81 690.3,80.6C688.3,79.7 687.2,78.9 686.1,78.1C686,77.2 685.4,76.7 684.6,76.3M658.7,70.6C658.1,72 657.7,72.9 658.2,74.5L658.3,74.3C658.6,73.6 658.9,72.8 659.2,72L658.5,71.8C658.6,71.4 658.7,71 658.7,70.6M657.4,66.3C657.5,66.4 657.5,66.6 657.6,66.8C657.7,66.5 657.8,66.3 657.9,66.1C657.8,66.1 657.6,66.2 657.4,66.3M656.6,67.5C656.8,67.9 656.9,68.2 657,68.6C657.1,68.4 657.1,68.1 657.2,67.9L656.8,67.7C656.7,67.6 656.6,67.5 656.6,67.5M656.9,70.9C657,71.1 657,71.3 657.1,71.4C657.2,71.2 657.2,71.1 657.3,70.9L656.9,70.9ZM656.5,72.4C656.6,72.6 656.7,72.8 656.8,73C656.8,72.7 656.9,72.4 656.9,72.1L656.5,72.4ZM658.7,80.4C659.1,81.2 659.6,82 659.9,82.7C659.9,82.4 659.9,82 660,81.5L660,81.4L665.4,70.2C665.8,69.3 665.9,68.8 665.9,68.5L665.9,68.4L665.6,68.4C665.2,68.4 664.6,68.7 664.3,69L663.2,69.8L663.3,68.5L663.5,66.9L662.5,66.6L661.6,68.2L660.7,67.9C660.6,68.2 660.4,68.6 660.3,69C660.3,69.1 660.2,69.2 660.2,69.3L660.4,69.8C660.8,70.6 660.1,73.2 659.3,74.8C659.2,75.1 659,75.4 658.9,75.6C658.7,75.9 658.6,76.1 658.4,76.2L657.8,76.6L657.5,75.9L657.5,75.8L657.2,75.9C658,77.3 658.7,78.7 659.1,80.1L658.7,80.4ZM639.9,66.9C640.5,66.6 640.8,66.5 641,66.5C641.1,66.5 641.3,66.5 641.8,66.1C643.5,64.9 643.9,64.9 644.4,64.9C644.6,64.9 644.8,64.9 645.6,64.4C645.8,64.3 645.9,64.2 646,64.1C646.2,63.9 646.4,63.8 647,63.6L648,63.2L647.8,64.2C647.6,65.1 647.2,65.4 646.5,65.9C646,66.3 645.3,66.9 644.4,67.9C643.8,68.6 643.2,69 642.6,69.4C641.9,69.9 641.3,70.3 640.8,71.1C640.4,71.7 640.1,72.2 639.9,72.5C639.3,73.4 639.2,73.7 637.5,74.9C637.1,75.2 636.8,75.5 636.5,75.8C636.3,76 636.1,76.2 635.9,76.5C635.1,77.3 634.7,77.3 634.3,77.4C634.1,77.4 633.8,77.5 633.4,77.8C633.1,78 632.9,78.3 632.6,78.6C632.4,78.9 632.1,79.2 631.8,79.4C631.4,79.7 631,79.9 630.8,80C630.5,80.1 630.3,80.2 629.9,80.8C629,82 629,83.5 629,85L629,85.9C629,86.6 629.1,87.2 629.2,87.6C629.5,88.6 629.6,89.2 628.4,89.9L628.1,91.6L628.1,91.7C628.3,91.8 628.5,91.9 628.7,92.2L629.1,92.6L628.7,92.9L629.3,92.9L630.2,93L629.9,93.4L630.4,93.1L630.8,92.9C630.3,92.2 629.7,91.4 629.3,90.3L630.3,89.7L634,94.3L634.4,94.3C635.2,94.2 635.3,94.2 636.4,94.6L637.2,94.9C637.3,94.9 637.6,94.9 637.9,95C638.2,95 638.4,95 638.6,95.1L639.3,95.2L639.1,95.8C640.4,95.6 640.9,95.9 641.5,96.2C641.9,96.4 642.4,96.7 643.6,96.8L643.9,97.7L646.9,97.7L646.5,98.5C646.5,98.6 646.4,98.7 646.4,98.7C646.9,98.7 647.4,98.7 648.4,99C648.2,98.8 647.9,98.4 647.5,98C646.9,97.3 646.2,96.3 645.4,95.2C641.2,89.5 634.4,79.5 634.1,78.3L635,77.7C635.2,77.8 635.3,78 635.5,78.1C635.7,78.3 635.8,78.4 636,78.6C636.5,79.2 637.1,80 637.5,80.7C637.4,80.5 637.4,80.4 637.4,80.3L638.3,79.8L639.2,80.6L640,80C640.2,80.1 640.4,80.3 640.7,80.7C640.9,80.9 641.1,81.2 641.3,81.5C640.4,80.1 639.4,78.4 639.1,77.3L640,77C640.1,77 640.1,77.1 640.2,77.1C639.9,76.5 639.6,76 639.4,75.5L640.3,74.9C640.8,75.4 644.6,80.9 647.5,85C648.8,86.8 649.8,88.4 650.4,89.2C650.7,89.7 651.6,90.9 652.7,92.5C654,94.4 655.6,96.9 657.1,98.9C656.5,97.9 656,97 655.7,96.8L656.4,95.9C657,96.2 657.4,96.9 658,97.6C656.5,95 653.7,91.1 651.3,87.8C649.8,85.8 648.5,84 647.8,82.9C647.6,82.6 647.2,82 646.8,81.4C644.9,78.5 641.7,73.5 641,71.9L641.9,71.3C642.4,71.9 642.9,72.5 643.3,73.2C642.8,72.2 642.3,71.3 642.1,70.7L643.1,70.1C643.6,70.7 644.4,71.9 645.4,73.2C645,72.5 644.7,71.9 644.5,71.5L645.4,70.9C646.5,72.2 647.6,73.8 648.5,75.4L649.1,76.3C649.3,76.6 649.6,77.1 650.1,77.8C650.5,78.4 650.9,79.1 651.4,79.7C653.6,83 656.5,87.2 658.1,89.1C657.7,88.5 657.4,88 657.3,87.5L658.4,87.2C658.4,87.2 658.4,87.3 658.5,87.3C658.6,87.4 658.6,87.5 658.7,87.6C657.5,85.5 655.7,83.2 654,80.8C652.4,78.6 650.8,76.4 649.7,74.6C649.5,74.4 649.3,74 649.1,73.6C648.1,72 646.7,69.7 646.3,68.7L647.2,68.1C647.3,68.2 647.5,68.4 647.6,68.6C647.1,67.7 646.7,66.9 646.3,66.1L647.2,65.4C648.1,66.1 650.1,69.2 652.3,72.7C653.8,75.1 655.4,77.6 656.8,79.6L656.6,79.3C656.3,78.8 656,78.3 655.8,78L656.6,77.3C655.9,75.9 654.9,74.6 654.1,73.3C652.8,71.4 651.6,69.6 651.1,68.1L652,67.5C652.1,67.6 652.1,67.6 652.2,67.7C651.3,66.2 650.5,64.8 650.2,63.8L651.1,63.2C651.3,63.4 651.6,63.6 651.8,63.9L652,64L652.9,63.5C653,63.6 653.1,63.8 653.2,63.9C653.2,63.8 653.1,63.7 653.1,63.7L654,63.1C654.4,63.5 654.7,64 655,64.4L655.1,64.6L656,64L657.2,65.2C657.2,64.9 657.3,64.5 658.2,64.3L658.5,64.2L658.7,64.5C658.8,64.6 658.8,64.6 658.9,64.7C659,64.6 659,64.5 659,64.4L659.3,64L659.7,64.2C660.4,64.5 660.6,65.2 660.5,66L660.9,65.4L661.4,66C661.4,66.1 661.5,66.1 661.5,66.1L661.8,65.5L662.2,65.6L664.1,66.1L664.6,66.2L664.5,66.7L664.4,67.7C664.7,67.6 665,67.5 665.3,67.5C665.7,67.5 666,67.5 666.3,67.7C666.6,67.9 666.8,68.2 666.9,68.6C667,69.1 666.8,69.9 666.3,71L661,81.9C660.8,82.8 661.1,83.5 661.4,84.1C661.5,84.4 661.7,84.8 661.8,85.2C661.9,85 662.1,84.8 662.2,84.5C662.4,84.2 662.6,83.8 662.8,83.5L662,83.3L662,83.2C662,82.9 663.1,79.8 664.4,76.7C665.7,73.5 667.3,70.2 668.3,69.8C668.4,69.8 668.5,69.7 668.5,69.7L668.7,69.7C668.8,69.7 669,69.8 669.3,69.9L669.8,70.1C667.7,68.4 666,65.9 664.2,63.3C661.3,59.2 658.4,55.1 654.6,54.8C651.2,55.1 647.4,59 643.7,62.9C642.5,64.3 641.2,65.7 639.9,66.9M623.1,80.4C624.6,79.2 626.2,77.8 627.8,76.3C629.9,74.5 632.1,72.6 634.2,70.8C634,70.9 633.8,71 633.6,71C631.8,72.4 629.3,74.7 626.9,76.8C625.6,78.2 624.2,79.4 623.1,80.4M604.8,99.8L604.4,99.8C604.4,100 604.3,100.2 604.2,100.6C604.1,100.9 604.1,101.1 604.1,101.2C604.1,101.7 604.1,101.7 603.4,102.3L602.9,102.7L602.6,102.1C602.1,101.1 601.7,98.1 601.6,95.9L601.6,93.5L601.8,93.4L615.4,84.9C616.6,84.1 617.6,83.3 618.7,82.5C619.7,81.7 620.7,80.9 621.7,80.1C623,79 624.6,77.6 626.2,76.1C628.6,73.9 631.2,71.6 633.1,70.2L633.3,70.1C636.4,69.1 639.8,65.7 643.1,62.2C647,58.2 650.9,54.1 654.8,53.8L654.9,53.8C659.3,54.1 662.4,58.4 665.4,62.8C667.6,66 669.9,69.1 672.5,70.5L680.4,73.6C684.3,74.6 685.8,75.7 687.4,76.9C688.4,77.7 689.5,78.4 691.3,79.3C692.4,79.8 692.9,80.3 693.5,80.9C693.8,81.1 694.1,81.4 694.4,81.8C695.8,83 697,83.4 698.3,83.9C699.3,84.3 700.4,84.7 701.7,85.5L712.1,91.5C714.2,92.5 714.2,92.8 713.9,95.1C713.9,95.3 713.8,95.6 713.8,95.8L713.7,96.5L713,96.2C713,96.2 713.4,96.6 713.5,96.7C713.7,96.9 713.7,97.1 713.8,97.6L713.8,97.7L713.9,98.6L713.1,98.3C713.3,98.5 713.4,98.8 713.5,99.1L713.7,99.9L713,99.8C713.2,100.1 713.3,100.6 713.3,101.1L713.4,102.3L713.3,102.2L713.3,102.5C713.3,104.1 713.3,105 711.3,105.3C710.5,105.4 709.1,105.3 708,105.2C707.8,105.2 707.5,105.2 707.2,105.1C706.6,105.1 705.9,105 705.2,105C703.9,104.9 702.6,104.9 701.3,104.7C700.7,104.6 700.1,104.5 699.5,104.4C698.8,104.2 698.5,104.1 698.5,103.8C698.4,103.7 698.3,103.6 698.3,103.5L698.1,103.2C697.8,102.3 697.1,101.6 696.3,100.7L696.2,100.6L693.4,97.5C693.5,97.7 693.5,98 693.5,98.2L693.6,99.3L692.6,98.8C692.4,98.7 692.3,98.6 692.1,98.5L692.4,99.1L691.6,99.1L691.4,99.5L691.2,99.1C690.6,99.1 690.5,98.9 690.1,98.3C689.9,98 689.6,97.5 689,96.9L688.7,96.6C687.7,95.5 686.2,93.2 685,91.3C684.8,91 684.6,90.6 684.4,90.3C684.2,90 684,89.7 683.9,89.4L682.2,86.6C682.1,86.5 682,86.4 682,86.3C681.9,86.3 681.9,86.2 681.8,86.2L681.5,86.1L681.5,85.8C681.4,85.2 681.4,84.9 681.3,84.7C681.2,84.2 681.2,84.1 681.2,83.9C681.2,83.7 681.3,83.6 681.3,83.5C681.4,83.4 681.6,83 681.9,80.8C682,80 682.1,79.7 682.3,79.4C682.4,79.2 682.5,78.9 682.7,78.4C682.8,78.2 682.9,77.9 682.9,77.6C683,77.3 683.1,77 683.1,76.8C682.9,76.7 682.7,76.6 682.6,76.6C681.6,76.2 680.6,75.7 679.8,75.5C679.6,75.4 679.3,75.4 679.1,75.3C678.5,75.2 677.9,75 677.5,74.9C677,74.7 676.7,74.5 676.5,74.3C676.3,74.2 676.1,74 675.9,73.9C675.5,73.7 672.2,72.5 670,71.7C669.6,71.6 669.2,71.4 668.9,71.3L668.5,71.2C667.8,71.7 666.5,74.6 665.3,77.4L665.1,77.9L665.3,77.7L665.5,77.6L666.4,78.1C666.1,79.6 664.3,83.2 663,85.4C662.7,85.8 662.5,86.2 662.3,86.5C662.1,86.8 661.8,87.1 661.6,87.3L661.1,87.7L660.8,87.1C660.4,86.4 660.5,86.1 660.6,85.9C660.5,85.5 660.4,85.2 660.2,84.8C660.1,84.6 660,84.3 659.9,84.1L659.3,84.5C660.2,85.8 660.8,86.9 661,87.7L660.1,88.2C660.5,89 660.9,89.8 661.1,90.5L661.5,91.7L660.3,91.1C660.5,91.5 660.7,92 660.8,92.6L660,93.3C659.8,93.2 659.6,93 659.4,92.9C660.3,94.2 661,95.3 661.3,96.1L660.5,96.8C660.4,96.7 660.2,96.6 660.1,96.5C660.5,97.2 660.8,97.9 661.1,98.6L660.3,99.3C660.2,99.2 659.9,99 659.6,98.5C659.9,99.2 660.2,99.8 660.2,100.3L660.3,101.3L659.4,100.8L659.2,100.7C659.4,101.2 659.7,101.7 659.9,102.1C660.1,102.5 660.2,102.9 660.4,103.2C660.5,103.5 660.6,103.8 660.6,104L660.8,105.2L659.7,104.6C659.5,104.5 658.6,103.3 657.4,101.6C657.4,101.7 657.3,101.8 657.2,102C657.1,102.2 657,102.2 656.9,102.2C656.9,102.2 656.8,102.2 656.5,102.4L655.8,102.8L655.6,102.1C655.4,101.2 653.2,98.1 652.1,96.6L651.7,96L646.6,88.7C646.6,89 646.4,89.3 646.1,89.7C646.8,90.6 647,91.1 646.1,92.1L646,92.2C646.2,92.4 646.3,92.7 646.6,93C646.7,93.2 646.8,93.3 646.9,93.4C647.3,93.9 647.6,94.3 647.8,95.1L648,95.9L647.2,95.8L647.1,95.8C647.6,96.5 648.1,97.1 648.5,97.6C649,98.2 649.3,98.6 649.4,98.7L649.8,98.9L649.6,99.4C649.6,99.5 649.5,99.5 649.5,99.5C649.6,99.7 649.6,99.8 649.4,100C649.3,100.2 649.2,100.2 648.8,100.3L648.6,100.4L648.2,100.4C647,100 646.5,100 645.9,100L644.9,100C644.5,100.1 644.3,100 644.2,99.8C644.1,99.7 644.1,99.6 644.1,99.5L644,98.9L642.3,98.9L641.9,97.9L642,97.8C641.4,97.7 641,97.4 640.7,97.2C640.2,96.9 639.9,96.7 638.2,97.1L637.8,97.2L637.6,96.9C637.6,96.8 637.5,96.8 637.5,96.8C637.3,96.6 637.3,96.5 637.4,96.2C637.2,96.2 637,96.2 636.8,96.1L636.7,96.1L635.8,95.8C634.9,95.5 634.9,95.5 634.3,95.6C634.1,95.6 633.9,95.6 633.5,95.7L633.2,95.7L633,95.5L632.6,95C632.4,95.5 631.9,95.8 630.7,96.1C629.4,96.4 628.9,96.6 628.5,96.9C628.2,97.1 627.8,97.3 627.1,97.5L626.1,97.9L626.4,96.8C626.4,96.7 626.5,96.6 626.5,96.5L625.5,97L624.4,97.6L624.8,96L624.8,95.8C624.4,96 624.1,96.1 623.8,96.2L623.2,95.3C623.9,94.6 624.4,94.2 624.8,93.8L624.3,93C624.7,92.6 625,92.3 625.4,92C625.7,91.8 626.1,91.6 626.6,91.4L626.6,91.1C626.2,91.3 625.9,91.6 625.5,91.8C624.5,92.4 623.6,93.1 622.6,93.5L622.2,92.5C622.4,92.4 622.6,92.2 622.9,92C623.5,91.4 624.4,90.6 626.3,89.8C628,89.1 627.9,88.8 627.7,88.1C627.6,87.6 627.4,87 627.4,86.1L627.4,85.2C627.4,83.5 627.5,81.8 628.3,80.4C628.8,79.5 629.2,79.3 629.7,79.1C629.9,79 630.2,78.9 630.5,78.7C630.7,78.5 630.9,78.3 631.1,78C631.4,77.6 631.7,77.2 632.2,77C632.8,76.6 633.2,76.6 633.5,76.5C633.8,76.5 634,76.4 634.5,75.9C634.7,75.7 634.9,75.5 635.1,75.3C635.4,74.9 635.7,74.6 636.3,74.2C637.8,73.1 637.9,72.9 638.4,72.1C638.6,71.8 638.9,71.3 639.4,70.6C640.1,69.6 640.8,69.1 641.5,68.6C642,68.2 642.6,67.8 643.1,67.3C643.6,66.8 644,66.4 644.3,66L644,66C643.7,66 643.5,66 642.1,67C641.3,67.6 641,67.6 640.7,67.6C640.6,67.6 640.4,67.6 640,67.9C637.8,69.2 635.3,71.1 632.7,73.3L633.4,73.9C633.2,74.5 629.6,77.6 627.1,79.7L627.8,80.3C627.5,80.9 626.5,81.9 625.4,82.9L625.6,82.7C625.7,82.6 625.8,82.6 625.9,82.5C626,82.4 626.2,82.4 626.4,82.3L626.6,82.2L627.3,83C626.2,85.1 612,94.6 606.7,98.2C606.1,98.6 605.6,98.9 605.2,99.2C605.2,99.5 605.2,99.6 604.8,99.8C605.1,100 605,99.9 604.8,99.8M604.4,98.6L604.6,98.6L604.8,98.5C605,98.3 605.7,97.9 606.5,97.4C607.5,96.8 608.7,95.9 610.1,95C609.2,95.5 608.4,96 607.8,96.3L607.2,95.5L607.1,95.5C607.8,94.8 609.2,93.9 610.5,93L611.1,92.6L610.9,92.7L610.3,91.7L614.2,88.8L613.7,87.8L615.2,86.8L615.4,86.7C616.3,86 617.4,85.2 618.4,84.3C617.7,84.8 617,85.4 616.2,85.9L602.8,94.3L602.8,96C602.9,97.4 603,99 603.2,100.3C603.4,99.6 603.4,99.3 603.6,99.1C603.8,98.7 604,98.7 604.3,98.8C604.3,98.7 604.3,98.7 604.4,98.6Z" style="fill:rgb(165,160,158);fill-rule:nonzero;"/>
                </g>
            </g>
        </g>
        <g opacity="0.15">
            <g>
                <g>
                    <g>
                        <clipPath id="_clip1">
                            <rect x="639.5" y="63" width="47.3" height="51"/>
                        </clipPath>
                        <g clip-path="url(#_clip1)">
                            <path d="M662.5,108.2L662.5,108C662.4,108 662.3,108.1 662.2,108.2L662.5,108.2ZM657.6,66.8C657.7,66.5 657.8,66.3 657.9,66.1C657.8,66.2 657.6,66.3 657.5,66.3C657.5,66.4 657.5,66.6 657.6,66.8M657,68.5C657.1,68.3 657.1,68 657.2,67.8L656.8,67.6C656.7,67.5 656.6,67.5 656.5,67.4C656.7,67.8 656.9,68.2 657,68.5M657.1,71.5C657.2,71.3 657.2,71.2 657.3,71L656.9,70.9C657,71.1 657.1,71.3 657.1,71.5M656.8,73C656.8,72.7 656.9,72.4 656.9,72.1L656.5,72.4C656.6,72.6 656.7,72.8 656.8,73M658.5,71.8C658.6,71.4 658.6,71 658.7,70.6C658.1,72 657.7,72.9 658.2,74.5C658.5,73.8 658.9,72.9 659.1,72L658.5,71.8ZM659.8,82.8C659.8,82.4 659.8,82.1 659.9,81.6L659.9,81.5L665.3,70.3C665.7,69.4 665.8,68.9 665.8,68.6C665.8,68.5 665.8,68.5 665.7,68.5L665.4,68.5C665,68.5 664.4,68.8 664.1,69.1L663.1,69.9L663.2,68.6L663.4,67L662.4,66.7L661.5,68.3L660.7,68C660.5,68.3 660.4,68.7 660.3,69.1C660.3,69.2 660.2,69.3 660.2,69.4L660.4,69.9C660.5,70.1 660.5,70.4 660.5,70.7C660.5,71 660.4,71.3 660.4,71.6C660.1,73.3 659,75.8 658.4,76.3L657.8,76.7L657.5,76L657.5,75.9L657.2,76C658,77.4 658.7,78.8 659.1,80.2L658.6,80.4C659.1,81.2 659.5,82 659.8,82.8M683.6,99C683.9,99.4 684.2,99.9 684.6,100.3C684.3,99.9 683.9,99.5 683.6,99M679,97.9L679,98.2C679.1,98.3 679.3,98.5 679.7,99C679.5,98.5 679.3,98.2 679,97.9M677.1,93L677.1,93.3L677.1,93ZM673.3,108.7L673.1,108.9C673.1,109 673.2,109 673.2,109.1L673.2,108.9L673.3,108.7ZM673.5,107.3L673.4,107.4L673.5,107.6L673.5,107.3ZM667.9,107.7C667.6,107.9 667.4,107.9 667.1,108C666.8,108.1 666.6,108.1 666.3,108.7L666.3,108.9C666.4,109.2 666.5,109.8 666.7,110.3C666.8,110.5 666.9,110.7 667,110.8C667.1,110.6 667.2,110.4 667.3,110.1C667.5,109.4 667.7,108.6 667.9,107.7M666.4,106.8C666.2,106.8 666.1,106.8 666,106.7L666,106.9L666.4,106.8ZM667.8,105.3C667.6,105.4 667.4,105.5 667.2,105.6C667.3,105.6 667.5,105.6 667.6,105.5L667.8,105.3ZM663.6,106.6L663.6,106.3C663.7,105.6 663.8,104.8 663.8,104.1L663.9,103.4L664.6,103.6C665.1,103.8 665.3,104 665.4,104.2C666,103.4 666.6,102.7 667.5,102.3L668.3,103.1L667.9,103.8C668.5,103.3 669.1,102.5 669.5,101.9C669.7,101.6 669.9,101.3 670.1,101.1L671,101.8L669.2,104.9L672.5,104.9C673.1,104.9 673.4,104.9 673.6,105L673.6,103.5C673.4,103.7 673.3,103.8 673.2,104C673.1,104.1 673.1,104.2 673,104.4L671.9,104C671.9,103.9 672,103.8 672.1,103.6C672.3,103.2 672.5,102.9 672.7,102.6C672.9,102.3 673.1,102.1 673.2,101.8C673.1,102 672.9,102.2 672.8,102.3C672.4,102.9 672,103.5 671.5,103.9L670.6,103.2C670.9,102.6 671.3,102.1 671.6,101.6C672,101.1 672.3,100.5 672.6,99.9C672.9,99.3 673.2,98.8 673.4,98.5L673.5,98.3C673.4,98.5 673.2,98.6 673.1,98.8C672.8,99.2 672.5,99.5 672.2,99.9L671.2,99.4C671.3,99.2 671.4,98.9 671.6,98.5C671.8,98.1 672,97.7 672.3,97.2C673.7,94.7 676.3,90.8 677.2,89.7L677.7,89.2L678.7,89.7C678.7,89.9 678.6,90 678.5,90.2C678.4,90.4 678.3,90.6 678.2,90.8C677.8,91.5 677.3,92.2 676.9,92.8L677.4,93C678.3,93.3 678.7,94.1 679,95.1L680.1,95.1C680,95 680,95 680,94.9C678.5,92.3 679.3,91.7 680.2,90.9C680.5,90.7 680.7,90.4 680.9,90.1C681.2,89.6 681.1,89.4 681,89.1C680.9,88.8 680.8,88.5 680.7,88C680.6,87 680.9,86.6 681.1,86.3C681.2,86.1 681.3,86 681.3,85.7C681.2,85.1 681.2,84.8 681.1,84.6C681,84.1 681,84 681,83.8C681,83.6 681.1,83.5 681.1,83.4C681.2,83.3 681.4,82.9 681.7,80.7C681.8,79.9 681.9,79.6 682.1,79.3C682.2,79.1 682.3,78.8 682.5,78.3C682.6,78.1 682.7,77.8 682.7,77.5C682.8,77.2 682.9,76.9 682.9,76.7L682.3,76.5C681.3,76.1 680.3,75.6 679.5,75.4C679.3,75.3 679,75.3 678.8,75.2C678.2,75.1 677.6,74.9 677.2,74.8C676.7,74.6 676.4,74.4 676.2,74.2C676,74.1 675.8,73.9 675.6,73.8C675.5,73.7 675.2,73.6 674.9,73.5C674.6,73.4 674.1,73.2 673.7,73C671.7,72.2 668.9,71.2 668.2,71C667.5,71.5 666.2,74.4 665,77.2L664.8,77.7C664.8,77.6 664.9,77.6 664.9,77.6L665,77.5L665.2,77.4L666.1,77.9C666,78.2 665.9,78.6 665.7,79C665.5,79.4 665.3,79.9 665.1,80.4C663.9,83 662.1,86.4 661.2,87.1L660.7,87.5L660.4,86.9C660,86.2 660.1,85.9 660.2,85.7C660.1,85.4 660,85 659.8,84.6C659.7,84.4 659.6,84.1 659.5,83.9L658.8,84.3C659.7,85.7 660.3,86.8 660.5,87.5L659.6,88C660,88.8 660.4,89.6 660.6,90.3L661,91.6L659.8,91C660,91.4 660.2,91.9 660.3,92.5L659.5,93.2C659.3,93.1 659.1,92.9 658.9,92.8C659.8,94.1 660.5,95.2 660.8,96L660,96.7C659.9,96.6 659.7,96.5 659.6,96.4C660,97.1 660.3,97.8 660.6,98.5L659.8,99.2C659.7,99.1 659.4,98.9 659.1,98.5C659.4,99.2 659.7,99.8 659.7,100.3L659.8,101.3L658.9,100.8C658.8,100.8 658.7,100.7 658.7,100.7C659.4,102.1 660,103.5 660.1,103.9L659.2,104.5C658.6,104.1 654.2,97.6 651.4,93.4L651.3,93.3L650.4,93.8C648.7,90.8 648.6,90.6 648.4,90.5C648.2,90.4 648.1,90.2 647.1,88.7C646.5,87.7 645.5,86.3 644.4,84.7C642.2,81.5 639.7,77.8 638.9,75.7L639.8,75.1C640.3,75.6 644.1,81.1 647,85.3C648.2,87.1 649.3,88.7 649.9,89.5C650.3,90 651.1,91.3 652.2,92.8C653.5,94.7 655.1,97.1 656.5,99.1C656.4,98.9 656.3,98.7 656.2,98.6C656,98.2 655.8,97.9 655.6,97.6C655.4,97.4 655.3,97.2 655.2,97.1L655.9,96.2C656.5,96.5 657,97.2 657.5,97.9C656,95.3 653.2,91.4 650.8,88.1C649.4,86.1 648.1,84.3 647.3,83.2C647,82.8 646.7,82.3 646.3,81.7C644.4,78.8 641.2,73.9 640.5,72.3L641.5,71.7C642,72.3 642.5,72.9 642.9,73.6C642.8,73.4 642.7,73.2 642.6,73C642.4,72.6 642.2,72.3 642.1,71.9C641.9,71.6 641.8,71.3 641.7,71.1L642.7,70.5C643.2,71.1 644,72.3 645,73.6L644.8,73.3C644.5,72.8 644.3,72.3 644.1,71.9L645,71.3C646.1,72.6 647.2,74.2 648.2,75.8L648.8,76.7C650.1,78.8 653.2,83.5 655.7,86.8C656.2,87.4 656.6,88 657,88.6C657.3,88.9 657.5,89.3 657.7,89.5C657.3,88.9 657,88.4 656.9,87.9L658,87.6C658,87.7 658.2,87.8 658.4,88.1C657.2,86 655.4,83.6 653.7,81.2C652.1,79 650.5,76.9 649.4,75C649.3,74.8 649,74.4 648.8,74C647.8,72.4 646.4,70.1 646,69.1L646.9,68.5C647,68.6 647.2,68.8 647.4,69C646.9,68.1 646.5,67.3 646.1,66.5L647,65.8C647.9,66.5 649.9,69.6 652.1,73.1C653.6,75.5 655.2,78 656.6,80.1L656.4,79.8C656.1,79.3 655.8,78.9 655.6,78.5L656.4,77.8C655.7,76.4 654.7,75.1 653.9,73.8C652.6,71.9 651.4,70.1 650.9,68.6L651.8,68C651.9,68.1 651.9,68.1 652,68.2C651.1,66.7 650.3,65.4 650,64.4L650.9,63.8C651.1,64 651.4,64.2 651.6,64.5L652,64L653,63.5C653.1,63.6 653.2,63.8 653.3,63.9C653.3,63.8 653.2,63.7 653.2,63.7L654.1,63.1C654.5,63.5 654.8,64 655.1,64.4L655.2,64.6L656.1,64L657.3,65.2C657.3,64.8 657.4,64.5 658.3,64.2L658.6,64.1L658.8,64.4C658.9,64.5 658.9,64.5 659,64.6C659,64.5 659.1,64.4 659.1,64.3L659.4,63.9L659.8,64.1C660.5,64.4 660.7,65.1 660.6,65.9L661,65.3L661.5,65.9C661.5,66 661.6,66 661.6,66L661.9,65.4L662.3,65.5L664.2,66L664.7,66.1L664.7,66.6L664.6,67.6C664.9,67.5 665.2,67.4 665.5,67.4C665.9,67.4 666.2,67.4 666.5,67.6C666.8,67.8 667,68.1 667.1,68.5C667.2,69 667,69.8 666.5,70.9L661,81.9C660.8,82.8 661.1,83.5 661.4,84.1C661.5,84.4 661.7,84.8 661.8,85.2C662.1,84.7 662.5,84.1 662.8,83.5L662,83.3L662,83.2C662,82.9 663.1,79.8 664.4,76.7C665.7,73.5 667.2,70.3 668.3,69.8C668.4,69.8 668.5,69.7 668.5,69.7L668.7,69.7C668.9,69.7 672.3,70.9 674.5,71.8C675,72 675.4,72.1 675.7,72.3C676,72.4 676.3,72.5 676.5,72.6L676.6,72.6C676.9,72.8 677.2,73 677.4,73.1C677.6,73.3 677.8,73.4 678.2,73.6C678.5,73.7 679.1,73.9 679.6,74C679.9,74.1 680.1,74.1 680.3,74.2C681.2,74.4 682.2,74.9 683.3,75.3C683.7,75.5 684,75.6 684.3,75.7L684.7,75.9L684.6,76.3C684.5,76.8 684.4,77.2 684.2,77.7C684.1,77.9 684.1,78.2 684,78.5C683.8,79.2 683.7,79.5 683.5,79.7C683.4,79.9 683.3,80.1 683.2,80.7C682.9,83 682.6,83.5 682.5,83.7C682.5,83.8 682.5,83.9 682.6,84.2C682.6,84.5 682.7,84.9 682.8,85.3C682.9,86 682.7,86.3 682.5,86.6C682.4,86.8 682.2,87.1 682.3,87.7C682.3,88 682.4,88.3 682.5,88.5C682.7,89 682.9,89.5 682.4,90.4C682.1,90.9 681.8,91.2 681.4,91.5C680.9,91.9 680.5,92.3 681.5,94.1C681.8,94.6 682.8,95.9 683.8,97.2C685.2,99 686.7,100.9 686.8,101.5L686.9,102.1L686.3,102.2C685.8,102.3 685.2,102.1 684.7,101.8L684.1,102.4L683.8,102.3C683.6,102.2 683.4,102.1 683.2,102C683.3,102.1 683.3,102.2 683.3,102.3L683.6,103.4L682.5,103C681.7,102.7 680.7,101.6 680.2,101L679.9,100.7C678.6,99.3 678.2,98.9 678,98.5C677.8,98.2 677.8,98.1 677.8,97.9C677.8,97.7 677.8,97.3 677.1,95.8C677,95.5 676.8,95.2 676.6,94.9C676.5,94.8 676.5,94.7 676.4,94.4C676.2,94 676.1,93.9 676.1,93.9C676.1,93.8 676,93.8 676,93.7C675.4,94.6 674.8,95.5 674.3,96.4C675.7,97.3 675.6,97.3 674.7,98.8C674.6,99 674.5,99.2 674.3,99.4L674.8,99.2L674.8,100C674.8,100.6 674.7,101 674.6,101.4L674.7,101.3L674.8,102.1C674.9,103.8 674.7,106.8 674.2,109C674.1,109.4 674,109.8 673.9,110.2C673.8,110.6 673.6,110.9 673.5,111.2L673.1,111.9L672.5,111.3C671.9,110.7 672,110 672.1,109.6C672,109.5 671.9,109.3 671.8,109.2C671.7,109.1 671.7,109 671.6,109L671.5,108.9C670.5,109.4 670,109.6 669.1,108.9L668.7,108.6L669,108.2C669.7,107.1 670.7,106.9 671.6,106.7C672.2,106.5 672.8,106.4 673.1,105.8L669,105.8C668.8,107 668.4,108.9 668,110.3C667.9,110.6 667.8,110.9 667.7,111.2C667.6,111.5 667.4,111.7 667.3,111.9L667,112.2L666.6,112C666.1,111.7 665.7,111.1 665.4,110.5C665.2,109.9 665,109.3 664.9,108.9C664.8,108.6 664.8,108.4 664.8,108.4L665,108L664.8,107.7C664.4,106.8 664.4,106.5 664.6,105.7L664.6,105.6L664.7,105.1L664.6,105.1C664.6,105.5 664.5,105.9 664.5,106.3C664.4,107.1 664.3,107.7 664.2,108.4L663.6,108.3C663.6,108.4 663.6,108.6 663.5,108.9C663.5,109 663.5,109 663.4,109.1C663.4,109.5 663.4,109.9 663.5,110.3C663.5,111.7 663.6,113.1 663.2,113.6C663.1,113.8 662.9,113.9 662.7,113.9C662.6,114 662.4,114 662.2,114C661.8,113.9 661.3,113.4 660.8,112.8C660.3,112.2 659.7,111.5 659.7,111.5L659.4,111.7L659.1,111.4C658.3,110.7 658.2,110.7 658.2,109.9L658.2,108.7L658.5,108.5L659.8,107.7L660.4,108.7L659.4,109.3L659.4,109.9C659.4,110.1 659.4,110.2 659.6,110.4C660.3,110.4 661.1,111.3 661.7,112L662.1,112.5L662.1,112.3L662.4,112.5L662.4,109.9C662.4,109.9 662.3,110 662.3,110.1L661.3,109.5C661.4,109.4 661.4,109.3 661.5,109.2L661.2,109.1L660.6,109L660.8,108.4C661.2,107.1 661.7,107 662.2,106.9C662.4,106.9 662.6,106.8 662.8,106.6C662.9,106.4 663.1,106.3 663.3,106.2L663.6,106.6Z" style="fill:rgb(165,160,158);fill-rule:nonzero;"/>
                        </g>
                    </g>
                </g>
            </g>
        </g>
        <path d="M675.4,106C676.3,106.1 677.3,106.1 678,106.5C677.3,107.2 676.6,107.1 675.6,107.6C675.8,107.9 675.3,108.5 677.7,108C676.8,109.2 675.5,109 677.1,111C678.3,110.5 678.2,108.5 678.8,106C679.5,106.1 679.5,106.7 681.2,106.9L680.7,107.2C679.3,108.1 679.8,107.4 679.4,108.6L681,108.5C680.1,109.4 679.4,109.5 680.7,110.5C681.7,108.8 681.1,109.2 681.8,107.4C681.8,107.3 681.9,107.2 681.9,107.2C682.9,107.4 682.1,107.1 682.6,107.4C683.6,107.9 682.9,107.5 683.4,107.9L682.2,108.1L682.4,110.3C683.4,110.1 682.7,110.6 683.3,109.2L684,107.3C684.5,107.8 684.4,108 685.2,108.3C684.9,109 685,108.4 684.5,109.4C685,110.2 684.9,110.4 685.5,110.9C685.9,109.7 686.1,107.7 686.6,106.6C686.7,106.6 686.7,106.6 686.8,106.7C686.8,106.8 686.9,106.7 687,106.8C687.9,107 687.9,107 689.4,106.1C690.2,105.6 691.7,104.9 692.3,104.3C690.3,104.7 686.7,106.1 684.8,107C685.8,105.7 688.5,105.1 689.9,104.1L690.3,103.8C688.8,104 686.4,105.1 684.8,105.6C684.6,105.7 684.2,105.8 684,105.9C683.1,106.2 684.5,106 683.2,106.1C684.7,105.2 686.8,104 688.6,103.1C687.2,103.1 682.5,105.3 681.4,105.5L685.8,102.9C684.1,103 682.4,103.9 680.9,104.5C679.2,105 677.1,104.1 675.4,106" style="fill:rgb(165,160,158);"/>
        <path d="M685.2,109.3C685.2,109.3 685.1,109.4 685.1,109.5L685.2,109.6L685.2,109.3ZM683.9,106.6L684.3,107C684.5,107.2 684.5,107.3 684.6,107.4C684.8,107.6 684.9,107.7 685.3,107.9L685.4,108C685.5,107.7 685.5,107.4 685.6,107.2C685.3,107.3 685,107.5 684.7,107.6L684,106.7C684.1,106.6 684.1,106.5 684.2,106.5C684.2,106.5 684.1,106.5 683.9,106.6M682.9,108.6L682.8,108.8L682.9,108.6ZM679.8,105.2C680.3,105.4 680.7,105.7 681.2,105.9L680.9,104.9C680.5,105.1 680.1,105.1 679.8,105.2M682.6,106.8C682.9,106.8 683.1,106.9 683.1,107.1L683.3,107.2L683.4,107.2L683.6,106.6L683,106.6L683,106.5C682.4,106.4 681.7,106.1 682.7,105.7L682.7,105.6L682.9,105.5C682.2,105.7 681.7,105.9 681.3,106C681.7,106.2 682.2,106.5 682.6,106.8M679.1,107.5C679.2,107.4 679.3,107.3 679.5,107.2M679.5,107.2L679.6,107.1M681.1,107.7L680.9,107.8C680.7,107.9 680.6,108 680.4,108.1L680.9,108.1C681,107.9 681,107.8 681.1,107.7M679.6,107.2C679.4,107.1 679.2,107 679.1,106.9M679.1,106.9C679,107.2 679,107.5 678.9,107.8M677.6,108.9C677.5,109 677.3,109.1 677.2,109.2C676.9,109.4 676.7,109.6 677.1,110.2C677.4,110 677.5,109.5 677.6,108.9M677.9,107.3C677.7,107.4 677.5,107.5 677.3,107.6L677.5,107.6L677.8,108C677.8,107.7 677.9,107.5 677.9,107.3M676.8,105.6C677.3,105.7 677.8,105.8 678.1,106L678.2,105.5L678.4,105.5C678.3,105.4 678.2,105.4 678.1,105.3C677.8,105.3 677.3,105.4 676.8,105.6M676.4,106.7C676,106.7 675.6,106.6 675.3,106.6L674.3,106.4L675,105.6C676.3,104.2 677.7,104.1 679,104.1C679.6,104.1 680.1,104.1 680.5,103.9C680.8,103.8 681.2,103.6 681.6,103.4C682.8,102.9 684.1,102.3 685.5,102.3L685.6,102.3L685.8,103.2C686.7,102.9 687.6,102.6 688.1,102.6L688.3,102.6L688.5,103.6C689,103.4 689.5,103.3 689.9,103.2L690.3,104.2L690.2,104.3C690.4,104.2 690.7,104.2 690.9,104.1C691.2,104 691.6,103.9 691.9,103.9L692.4,104.9C691.9,105.4 690.8,106 690,106.4C689.8,106.5 689.6,106.6 689.4,106.7L689.1,106.9C687.8,107.6 687.7,107.7 686.8,107.5C686.6,108.1 686.5,108.8 686.3,109.5C686.2,110.1 686.1,110.7 685.9,111.2L685.7,112L685,111.5C684.5,111.1 684.4,110.9 684.3,110.5C684.2,110.3 684.1,110.1 683.9,109.9L683.7,109.6L683.8,109.3C684,109 684.1,108.8 684.2,108.6C684.1,108.6 684.1,108.5 684,108.5L683.7,109.5C683.5,110 683.5,110.2 683.5,110.3C683.5,110.4 683.5,110.5 683.4,110.7C683.2,110.9 683.1,110.9 682.9,110.9C682.8,110.9 682.7,110.9 682.5,111L681.9,111.1L681.8,110.5L681.7,109.7C681.6,110 681.4,110.4 681.1,111L680.8,111.6L680.3,111.2C679.3,110.4 679.2,109.9 679.5,109.4L679.4,109.4L678.7,109.5C678.5,110.6 678.1,111.4 677.3,111.8L676.9,112L676.6,111.7C675.4,110.2 675.5,109.6 676,109.1C675.2,109 675.1,108.7 675.1,108.3L674.7,107.8L675.2,107.5C675.7,106.9 676,106.8 676.4,106.7" style="fill:rgb(165,160,158);fill-rule:nonzero;"/>
        <g opacity="0.15">
            <g>
                <g>
                    <g>
                        <clipPath id="_clip2">
                            <rect x="683.1" y="80.6" width="15.8" height="22.5"/>
                        </clipPath>
                        <g clip-path="url(#_clip2)">
                            <path d="M691.9,98.5C692.4,98.7 692.4,98.9 692.9,99.4C693.4,99.9 693.4,99.9 694,100.4C695.1,101.4 695.2,101.5 696.5,102.2C695.8,101.1 695.8,101.6 695.2,100.2C696.7,101 696.9,101.7 699,102.9C698.7,101.8 697.9,101 697,100L693.6,96.2C693.1,95.7 692.9,95.6 692.4,95C689.9,92.5 684.7,83.3 683.7,80.3C684,83.1 688.8,91.7 690.5,93.9C691.6,95.3 693.2,95.8 693.4,98C691.8,97.1 690.3,94.2 689.1,92.9C685.1,88.2 685.7,87.1 683.3,83.5C683.7,85 684.2,86.4 685,87.7L687,91.4C689.1,95 688.9,93.3 691.5,97.4L691.9,98.1C691.8,98.3 691.8,98.5 691.9,98.5" style="fill:rgb(165,160,158);"/>
                        </g>
                    </g>
                </g>
            </g>
        </g>
        <g opacity="0.15">
            <g>
                <g>
                    <g>
                        <clipPath id="_clip3">
                            <rect x="682.8" y="80.5" width="16.5" height="22.9"/>
                        </clipPath>
                        <g clip-path="url(#_clip3)">
                            <path d="M691.9,98.5C692.4,98.7 692.4,98.9 692.9,99.4C693.4,99.9 693.4,99.9 694,100.4C695.1,101.4 695.2,101.5 696.5,102.2C695.8,101.1 695.8,101.6 695.2,100.2C696.7,101 696.9,101.7 699,102.9C698.7,101.8 697.9,101 697,100L693.6,96.2C693.1,95.7 692.9,95.6 692.4,95C689.9,92.5 684.7,83.3 683.7,80.3C684,83.1 688.8,91.7 690.5,93.9C691.6,95.3 693.2,95.8 693.4,98C691.8,97.1 690.3,94.2 689.1,92.9C685.1,88.2 685.7,87.1 683.3,83.5C683.7,85 684.2,86.4 685,87.7L687,91.4C689.1,95 688.9,93.3 691.5,97.4L691.9,98.1C691.8,98.3 691.8,98.5 691.9,98.5Z" style="fill:none;fill-rule:nonzero;stroke:rgb(167,169,172);stroke-width:1.24px;"/>
                        </g>
                    </g>
                </g>
            </g>
        </g>
        <path d="M639.1,104.9L637.2,104.4C637.5,104.8 638.4,105.2 639.1,106C637,105.4 636.8,104.3 637.3,106.8C637.5,107.9 637.1,109.3 638.8,110.5C640.1,108.6 639.7,107 639.9,104.4C641.2,103.6 643.4,103 644.5,102.1C643.4,102.8 640,102.6 639.3,104.1L639.1,104.7C639.2,104.7 639.2,104.8 639.1,104.9" style="fill:rgb(165,160,158);"/>
        <path d="M639.3,106L639,106.5C638.3,106.3 637.8,106.1 637.5,105.9C637.4,105.8 637.4,105.7 637.3,105.8C636.9,105.9 637.7,106 637.8,106.8C637.8,107.1 637.9,107.3 637.9,107.6C637.9,108.3 638,109 638.7,109.7C639.3,108.6 639.3,107.6 639.3,106.3L639.3,106ZM637.4,103.8L638.8,104.2L638.9,103.9L638.9,103.8C639.4,102.6 641.1,102.3 642.5,102C643.2,101.9 643.9,101.7 644.3,101.5L645,102.4C644.3,103 643.2,103.5 642.2,103.9C641.6,104.1 641,104.4 640.6,104.6C640.6,105.2 640.5,105.6 640.5,106.1C640.4,107.8 640.4,109.1 639.4,110.7L639.1,111.2L638.6,110.9C637,109.8 636.9,108.6 636.9,107.5L636.9,106.8C636.7,105.5 636.6,104.9 637,104.7L637.4,103.8Z" style="fill:rgb(165,160,158);fill-rule:nonzero;"/>
        <path d="M633.5,102.5L635.3,102.5C635.1,104.3 635.4,103.6 633.5,103.3C634.2,103.8 634.5,104.2 635,104.9C634.1,104.4 633.4,104.1 632.6,103.7C632.4,105 632.7,105 633.6,105.4C632.6,106.1 633.6,107.9 634,109.5L634.3,109.2C635.2,108.1 634.8,108.8 635.1,107.2L635.2,106.7C635.2,106.6 635.2,106.5 635.3,106.4C636.1,101.2 634.9,102 639.1,100.1C639.1,100.1 639.6,99.9 639.7,99.8C640.8,99.5 639.6,99.7 640.1,99.8C638.3,99.6 634.6,100.9 633.5,102.5" style="fill:rgb(165,160,158);"/>
        <path d="M640.2,99.7L640.1,99.9L640.3,100C640.3,99.8 640.3,99.7 640.2,99.7M640.2,100L640.3,100.1C640.3,100 640.4,100 640.4,99.9C640.4,99.9 640.3,99.9 640.3,99.8L640.1,99.7L640.2,100ZM640.1,100C640.1,100 640.2,100 640.1,100L640.1,99.9L640.1,100ZM634.4,108.1C634.4,107.9 634.4,107.6 634.5,107.1L634.6,106.6L634.6,106.4C634.7,106 634.7,105.6 634.7,105.3M635.5,108.6L634.4,108.2M634.9,105.2L634.8,105.3L634.1,105.8C633.7,106.1 634,107 634.3,108L634.4,108.3L634.5,108.2L634.5,108.1L635.6,108.2C635.6,108.4 635.6,108.5 635.5,108.7C635.4,108.9 635.3,109 635.1,109.2C635,109.3 634.9,109.4 634.8,109.6L634.5,109.9L633.8,110.8L633.5,109.7C633.4,109.3 633.3,108.9 633.1,108.5C632.8,107.4 632.4,106.5 632.8,105.7C632.1,105.3 631.9,105 632.1,103.7L632.2,102.9L632.5,103.1L633,102.3C633.9,101 636.2,99.9 638.1,99.5C638.5,99.4 638.8,99.4 639.2,99.3L639.7,99.3C639.8,99.3 639.9,99.2 639.9,99.2C640.2,99.1 640.6,99.3 640.7,99.6C640.8,99.8 640.6,100.2 640,100.4L640,100.5L639.8,100.5L639.4,100.7L639.3,100.7L638.7,101C637.3,101.6 636.7,101.9 636.4,102.3C636.2,102.6 636.2,103.1 636.1,104C636,104.7 636,105.5 635.8,106.6L635.8,106.9L635.7,107.4C635.6,107.9 635.6,108.1 635.6,108.3M633.3,103.4L633.5,103.1L632.7,103.1L632.9,103.2C633,103.2 633.2,103.3 633.3,103.4M634.9,103.2C635,103.1 635,103.1 634.9,103.2C634.9,103.1 634.8,103.2 634.9,103.2M634.9,101.9L635.3,101.9C635.4,101.8 635.4,101.6 635.5,101.5C635.3,101.7 635.1,101.8 634.9,101.9" style="fill:rgb(165,160,158);fill-rule:nonzero;"/>
        <g opacity="0.15">
            <g>
                <path d="M635.1,133.3L636.3,135.6C637.4,135.7 638.7,136.2 639.2,136.2C642.2,136.4 638.8,136.4 641.7,135.2C640.7,134.8 640.3,135.1 639.4,134.6L640.8,134.1C639.6,133.6 639,134 637.9,133.4C636.3,132.6 636.6,132.7 635.1,133.3" style="fill:rgb(165,160,158);"/>
            </g>
        </g>
        <g opacity="0.15">
            <g>
                <g>
                    <g>
                        <clipPath id="_clip4">
                            <rect x="634.3" y="132.2" width="7.6" height="4.7"/>
                        </clipPath>
                        <g clip-path="url(#_clip4)">
                            <path d="M635.8,135.9L634.6,133.6L634.3,133.1L634.8,132.9C635,132.8 635.2,132.7 635.3,132.7C636.5,132.2 636.5,132.2 638.1,133C638.6,133.3 639,133.3 639.4,133.3C639.9,133.3 640.3,133.4 641,133.7L641,134.5C641.2,134.5 641.5,134.6 641.8,134.7L641.8,135.7C641.1,136 640.9,135.9 640.8,135.9L640.9,136C641.5,136.6 641.7,136.9 640.4,136.9C640.3,136.9 639.9,136.9 639.1,136.8C638.8,136.8 638.5,136.7 638,136.6C637.5,136.5 636.8,136.3 636.3,136.2L635.9,136.2L635.8,135.9ZM635.9,133.6L636.7,135.1C637.3,135.2 637.9,135.3 638.4,135.5C638.8,135.6 639.1,135.7 639.3,135.7L640,135.7C640,135.6 640.1,135.5 640.2,135.5C639.9,135.5 639.6,135.4 639.2,135.1L638.2,134.5L638.8,134.3C638.5,134.2 638.2,134.1 637.8,133.9C636.5,133.3 636.5,133.3 635.9,133.6Z" style="fill:rgb(165,160,158);fill-rule:nonzero;"/>
                        </g>
                    </g>
                </g>
            </g>
        </g>
        <path d="M643.1,106.8L642.4,107.5C642.2,107.4 642.1,107.4 642,107.3C641.9,107.3 641.8,107.2 641.8,107.2C641.7,107.1 641.6,107.1 641.5,107L641.5,107.2C641.7,108.3 642.1,109.5 642.2,109.7L642.4,109.9C642.8,108.8 643,107.9 643.1,106.8M641.5,105.1L642.8,105.4C643.5,104.4 644.7,103.9 645.7,103.7C645.9,103.7 646.1,103.6 646.3,103.6C646.8,103.5 647.3,103.5 647.4,103.6L647.5,104.7C646.9,104.9 646.7,105 646.4,105.2C646.2,105.3 646,105.4 645.7,105.6C645.3,105.8 645.2,105.9 644.9,105.9L644.7,105.9L644.3,106L644.2,106.4C644,108.1 643.9,109.1 643.2,110.8L643,111.3L642.5,111.1C642.5,111.1 642.1,110.9 641.9,110.8C641.8,110.7 641.3,110.2 641.3,110.2C640.9,109.8 640.5,108.3 640.3,107.1C640.3,106.9 640.2,106.7 640.2,106.4C640.2,106.2 640.1,106 640.1,105.8L640,104.9L641.2,105.3L641.5,105.1Z" style="fill:rgb(165,160,158);fill-rule:nonzero;"/>
        <g opacity="0.15">
            <g>
                <g>
                    <g>
                        <clipPath id="_clip5">
                            <rect x="612.6" y="101.3" width="5.5" height="6.5"/>
                        </clipPath>
                        <g clip-path="url(#_clip5)">
                            <path d="M613.4,102.1C614.2,101.7 614.7,102 615.3,102.3L614.7,101.3L615.9,101.5L617.5,101.8L618.1,101.9L618,102.5C617.9,102.8 617.8,103.2 617.7,103.6C617.6,103.9 617.5,104.4 617.3,104.9C617.2,105.3 617.1,105.6 617.1,105.8C617,106.3 617,106.5 616.6,107.1L616.1,107.8L615.7,107C615.6,106.8 615.5,106.7 615.5,106.6C615.5,106.5 615.4,106.4 615.4,106.4C615.3,106.6 615.2,106.9 615,107.3L614.7,107.9L614.2,107.5C613.3,106.7 612.9,106.5 613.6,105.3C613.1,104.9 613,104.9 613,103.7L612.9,102.9L613.4,103L612.9,102.5L613.4,102.1ZM616.4,104C616.3,104 616.1,103.9 616,103.9L616,104L615.3,104.8L614.2,104.5C614.3,104.5 614.3,104.6 614.4,104.6L614.6,104.8C615.4,105 615.7,105.1 616,105.4C616,105.2 616.1,104.9 616.2,104.6L616.4,104Z" style="fill:rgb(165,160,158);fill-rule:nonzero;"/>
                        </g>
                    </g>
                </g>
            </g>
        </g>
        <g opacity="0.15">
            <g>
                <g>
                    <g>
                        <clipPath id="_clip6">
                            <rect x="673.9" y="137.9" width="5.7" height="2.5"/>
                        </clipPath>
                        <g clip-path="url(#_clip6)">
                            <path d="M673.9,140.1C675.1,140.6 678.5,140.6 679.6,140L678.3,139.6C679.1,139.1 678.6,139.6 678.9,138.8C677.6,138.3 678.8,138.8 677.6,137.9C675.8,138.2 674.5,138.5 673.9,140.1" style="fill:rgb(165,160,158);"/>
                        </g>
                    </g>
                </g>
            </g>
        </g>
        <g opacity="0.15">
            <g>
                <path d="M678.6,138.2C678.6,138.1 678.4,138 678.6,138.2M674.7,139.7L674.9,139.7C675.2,139.7 675.4,139.8 675.7,139.8L677.1,139.8L677,139.8L678,139.1L678.1,139.1C678,139.1 678,139 677.9,139C677.8,138.9 677.8,138.8 677.7,138.7C677.7,138.7 677.6,138.6 677.5,138.5C676.7,138.6 676.1,138.7 675.6,139C675.2,139.2 674.9,139.4 674.7,139.7M674,140.7C673.9,140.7 673.8,140.6 673.7,140.6L673.2,140.4L673.4,139.9C673.7,138.9 674.3,138.3 675.1,138C675.8,137.7 676.6,137.5 677.6,137.4L678,137.5C678.4,137.8 678.6,138 678.7,138.2C678.8,138.2 678.9,138.3 679.1,138.3L679.2,138.3L679.7,138.5L679.5,139C679.4,139.1 679.4,139.2 679.4,139.2L679.8,139.3L679.9,140.3C679.1,140.7 677.2,140.9 675.7,140.8C675.4,140.8 675.1,140.7 674.8,140.7C674.5,140.9 674.2,140.8 674,140.7" style="fill:rgb(165,160,158);fill-rule:nonzero;"/>
            </g>
        </g>
        <g opacity="0.15">
            <g>
                <g>
                    <path d="M611.9,104.1C611.7,104.4 611.5,104.6 611.3,104.7C611,104.9 610.7,105 610.5,104.9C610.6,105.1 610.6,105.3 610.7,105.5C610.8,105.7 610.8,105.9 611.4,106C611.4,105.8 611.4,105.6 611.5,105.3L611.7,104.6C611.8,104.4 611.8,104.2 611.9,104.1M609.1,102.2C609.8,101.9 610.3,102 610.9,102.3L611,101.6L611.5,101.5C611.6,101.3 611.7,101.1 612.1,100.8L613,101.3C612.9,102.1 612.9,102.6 613,103C613,103.7 613,104.1 612.7,104.9L612.5,105.6C612.5,105.6 612.4,105.6 612.4,105.5C612.6,105.8 612.7,105.8 612.2,106.8L612,107.1L611.6,107.1C609.8,107 609.7,106.5 609.5,105.8C609.4,105.6 609.4,105.3 609.1,105.1L608.7,104.7L609.2,104.2C609.4,104 609.5,103.9 609.6,103.9L609.7,103.9C609.6,103.8 609.5,103.7 609.4,103.7C609.3,103.6 609.2,103.5 609.1,103.5C609,103.4 608.9,103.3 608.9,103.2L608.5,102.6L609.1,102.2Z" style="fill:rgb(165,160,158);fill-rule:nonzero;"/>
                </g>
            </g>
        </g>
        <g opacity="0.15">
            <g>
                <path d="M660.2,107.7L660.3,107.4C660.1,107.5 659.9,107.6 659.8,107.6C659.9,107.7 660.1,107.7 660.2,107.7M659.5,110.2C659.6,109.9 659.8,109.5 659.9,109.1L659.5,109.4L659.5,110.2M660.7,105.7L661.1,106C661.1,106 662,105.7 662.3,105.6C661.7,105.6 661.2,105.7 660.7,105.7M663.1,109.7L663.1,109.3C662.9,109.4 662.7,109.6 662.5,109.8C662.6,110.2 662.7,110.2 662.7,110.3L662.8,110.4C663.1,110.3 663.1,110.1 663.1,109.7M663.3,108.2C663.3,108 663.4,107.8 663.4,107.6C663,107.9 662.8,107.9 662.5,108C662.4,108 662.3,108.1 662.2,108.2L663.1,108L663.3,108.2ZM663.6,106.3C663.5,106.3 663.5,106.3 663.4,106.4L663.5,106.7L663.6,106.3ZM667.2,105.5C667.3,105.5 667.5,105.5 667.6,105.4L667.7,105.2C667.6,105.4 667.4,105.5 667.2,105.5M665.9,106.9L666.3,106.8C666.1,106.8 666,106.8 665.9,106.7L665.9,106.9M667,110.8C667.3,110.1 667.6,108.8 667.9,107.7C667.6,107.8 667.4,107.9 667.1,108C666.8,108.1 666.6,108.1 666.2,108.8L666.1,109C666.1,109 666.3,108.9 666.4,109.1C666.5,109.4 666.6,109.9 666.7,110.3C666.8,110.5 666.9,110.7 667,110.8M673.5,107.5L673.5,107.3L673.4,107.4L673.5,107.5ZM673.2,109.1C673.2,109 673.3,108.8 673.3,108.7L673.1,108.9C673.1,108.9 673.2,109 673.2,109.1M679.7,98.9C679.5,98.6 679.3,98.2 679,97.9L679,98.2C679.1,98.2 679.3,98.4 679.7,98.9M677.1,93.3L677.1,93L677,93C677,93.2 677.1,93.3 677.1,93.3M684.6,100.3C684.3,99.9 684,99.4 683.6,99C683.9,99.4 684.2,99.9 684.6,100.3M699.6,103.1C699.6,103.2 699.6,103.1 699.6,103.1M696.2,102.7L697.6,102.9C697.2,102.6 696.9,102.4 696.7,102.2L696.2,102.7ZM695.7,128.6L699.9,128.6C699.1,128.4 698,128.5 697,128.5C696.5,128.5 696.1,128.5 695.7,128.6M681.6,130.9L681.6,131L681.6,130.9ZM694.2,131.7C695.4,131.7 696.3,131.6 697,131.6C696.9,131.6 696.7,131.5 696.6,131.5C696,131.4 695.3,131.5 694.7,131.7L694.2,131.7M690.5,131.7L692.8,131.7L692.5,131.7C692,131.7 691.4,131.6 690.5,131.7ZM685.4,131.7L686,131.7L685.4,131.7M687.1,140.2C687.5,140.3 687.9,140.4 688.2,140.2L687.1,140.2M667.7,136.1L667.5,136.3C668.6,136.4 669.6,136.6 670.1,137.3L670.5,137.8L670,138.2C669.8,138.4 669.6,138.5 669.4,138.6L669.7,138.8L669.4,139.3C669.3,139.4 669.2,139.6 669.2,139.7L673.2,139.7C673.6,139.8 673.7,140 674,140.6L674.2,140.9L674,141.2L680.6,141.3L680.3,140.8L680.8,140.5C681.2,140.2 682,140.1 682.7,140.1L682.6,140L682.8,139.1C682.2,139.1 681.6,139.1 681,139L680.9,137.9C678,137.8 673.2,137.7 672.6,137.5L671.6,137.2L672.4,136.6C670.6,136.3 669,136.2 667.7,136.1M660.4,133C660.5,133.1 660.5,133.2 660.6,133.2L661,133.3C661.2,133.3 661.4,133.4 661.6,133.4C662.6,133.5 663.7,133.7 663.8,134.9L664.1,134.9C665.2,135 666,135 667,135.4L666.9,134.8C667.1,134.7 667.4,134.6 667.7,134.5C666.5,134.5 665.2,134.4 664,134.4L663.9,133.3C664,133.3 664.1,133.2 664.2,133.2C664.3,133.2 664.5,133.1 664.6,133.1C662.8,133.2 661.2,133.1 660.4,133M655.6,130.4C656.2,130.5 656.7,130.8 657.4,131.6L657.7,131.9C658.6,132 659.4,132.2 660,132.6C660.1,132.7 660.2,132.7 660.3,132.8L660.3,131.8C663.4,131.2 672.8,131.4 681.5,131.5L682.5,131.5C681.7,131.2 681.7,131.1 681.7,130.8L681.8,130.8L682,130.2C677.8,130.3 674.2,130.3 672.8,130.2C672.1,130.1 671,130.2 669.9,130.2C668.8,130.2 667.7,130.3 666.9,130.2L666.8,130.2C664.9,130.1 662.8,130.1 660.7,130.2C659,130.4 657.3,130.5 655.6,130.4M664.5,119.5C664.2,119.6 663.9,119.6 663.7,119.7C665,119.5 666.3,119.3 667.6,119.1L667.3,119.1C666.7,119.2 666.1,119.2 665.6,119.3C665.1,119.4 664.7,119.4 664.5,119.5ZM638,125.8L638.6,126.2L638.6,126.1L639.2,125.8C639.8,125.5 640.2,125.4 640.5,125.4C640.8,125.4 641,125.3 641.4,125.1L641.5,125.1L643.5,124.1L643.6,124.1C644.2,123.9 644.5,123.7 644.8,123.4C645.4,122.9 645.8,122.4 647.9,122.6C649.6,122.8 649.8,122.7 650.2,122.5C650.5,122.4 650.9,122.2 651.8,121.9C652.6,121.7 653.2,121.7 653.8,121.6C654.6,121.5 655.3,121.5 656.5,121C656.9,120.8 658.7,120.5 661.1,120.1C660.2,120.2 659.4,120.2 658.7,120.3C657.7,120.4 656.7,120.4 655.7,120.6L647.5,122C644.9,122.3 644.5,122.7 644.1,123C643.8,123.2 643.5,123.4 642.8,123.6C642,123.8 640.9,123.8 639.7,123.7C638.6,123.7 637.4,123.6 636.4,123.8C635.4,124 634.6,124.3 633.9,124.7C633.5,124.9 633.2,125.1 632.8,125.2C633.5,125.7 633.6,125.7 633.8,125.7C633.9,125.7 634.1,125.6 634.2,125.6C634.4,125.6 634.5,125.6 634.7,125.5C635.7,125.3 637,125.1 638,125.8ZM652.7,148.3L652.2,148.6C652.3,148.6 652.3,148.6 652.4,148.7C652.6,148.8 652.7,148.8 652.8,148.9C652.8,148.7 652.7,148.5 652.7,148.3M650.9,145.9C650.9,146 650.8,146.1 650.8,146.2C651,146.3 651.1,146.5 651.3,146.8L651.4,147L652.3,147.7L652.5,147.8C652.4,147.5 652.2,147.3 652.1,147.1C651.7,146.6 651.3,146.3 650.9,145.9M641.3,146.1L640.3,146.1L641,146.2C641.1,146.1 641.2,146.1 641.3,146.1M645.9,146L645.1,146L645.1,146.2L644.9,147.1C645.2,146.9 645.4,146.6 645.7,146.3L645.9,146ZM647.2,145L646.9,145L646.9,145.2C647,145.1 647.1,145 647.2,145M648.9,144.5L648.7,144.7L649.1,144.7C649.1,144.6 649,144.6 648.9,144.5M646.3,141.5L646.1,142.3C646.4,142.4 646.6,142.5 646.9,142.7L646.7,143.3C647.2,143.3 647.6,143.4 648,143.5C647.3,142.8 646.8,142.3 646.3,141.5M645.8,140.7L645.6,140.8C645.5,140.8 645.5,140.9 645.4,140.9L645.5,140.9C645.9,141 646.1,141 646.2,141.1L645.8,140.7ZM644.4,139.1C644.4,139.2 644.3,139.3 644.1,139.5C644.4,139.5 644.7,139.6 644.9,139.6C644.8,139.4 644.6,139.2 644.4,139.1M643.1,137.9L643.1,138C643.1,138 643,138.1 642.9,138.1L643.3,138.1C643.3,138.1 643.2,138 643.1,137.9M624.4,135.4L623.3,135.4L624.4,135.4M623.7,134.1C622.8,134 622,134 621.5,134C622.2,134.1 623,134.1 623.7,134.1M630.2,131L630,131.1C629.7,131.3 629.3,131.4 628.8,131.5L625.6,131.5C625,131.5 624.4,131.5 623.8,131.4C622.6,131.4 621.3,131.3 620.1,131.3L620.5,131.4L620,132.1C620,132.2 619.9,132.2 619.9,132.3C622.1,132.6 626.6,132.7 629.4,132.7L631.2,132.7L631.5,133.6L631.5,133.7C631.4,133.7 631.4,133.8 631.3,133.8C631.2,133.9 631.1,134 631,134L631.6,134.1L630.8,134.9C630.8,135 630.7,135.1 630.5,135.2C630.4,135.2 630.4,135.3 630.3,135.3L630.2,135.3C630.9,135.3 631.7,135.3 632.4,135.4C633,135.4 633.6,135.5 634.2,135.5C634.8,135.5 635.3,135.6 635.8,135.6C637.1,135.7 638.1,135.8 638.4,136L638.3,136.8C640,136.8 641.5,136.8 642.4,136.9C642.3,136.4 642.5,136.3 642.8,136.2C642.8,136.2 642.7,136.3 642.5,135.8C642.5,135.8 642.5,135.7 642.4,135.6C642.4,135.5 642.3,135.5 642.3,135.4C642.1,135 641.7,134.6 641.5,134.4C640.2,133.2 639,133.2 637.6,133.1C635.7,133.2 633.5,133.1 630.2,131M618.1,127L618,127C617.1,126.9 616.2,126.8 615.4,126.9C616.1,127 617.1,127.1 618.1,127M633.1,123.8C632,124.2 630.4,124.3 628.5,124.4C628.6,124.4 628.8,124.5 628.9,124.6L629,124.6C629.1,124.6 629.1,124.7 629.2,124.7L628.9,125.8L621.6,125.8L625.5,126L625.7,127.1L625.6,127.1C625.2,127.2 624.8,127.3 624.4,127.4L625.1,127.6L624.4,128.3C624.2,128.5 624,128.6 623.7,128.7C624.5,128.7 625.2,128.8 626,129.3L625.7,130.2L628.8,130.2L629.4,127.8L629.5,127.5L629.8,127.4C630.7,127.2 631.7,127.2 632.7,127.3C632.7,127.3 632.7,127.4 632.6,127.2L632.4,126.8L632.5,126.7C632.3,126.6 632.1,126.4 631.7,126.1L630.3,124.7L631.2,124.5C632,124.3 632.6,124 633.1,123.8M617.8,122.6C617.5,122.6 617.3,122.6 617.1,122.5C616.3,122.4 615.8,122.5 615.4,122.6L617.8,122.6M636.2,122.7C635.6,122.7 635,122.8 634.3,122.8L633.3,122.8L633.3,123.7C634.1,123.3 634.9,122.9 636.1,122.7L636.2,122.7ZM614.3,120.9L611.3,120.9L614.3,120.9ZM645.3,121.2C643.6,121.4 641.1,121.4 638.5,121.4L638.7,122.3C638.5,122.4 638,122.5 637.4,122.6L639.6,122.6C640.7,122.6 641.7,122.7 642.4,122.5C642.9,122.4 643.1,122.2 643.3,122.1C643.6,121.8 644,121.5 645.3,121.2M616.8,119.5C615.3,119.4 613.7,119.4 612.2,119.4C613.5,119.4 615.1,119.5 616.8,119.5M654.2,119.7L653.7,119.7C652.7,119.7 651.5,119.8 650.2,119.8C649.1,119.8 647.9,119.9 646.7,119.9L646.9,120.9C646.8,120.9 646.7,121 646.6,121C646.8,121 647,120.9 647.2,120.9L654.2,119.7ZM605.7,110.5C605.6,110.3 605.6,110.3 605.7,110.5M605.7,110.5L605.7,111.1L605.7,110.5ZM604.6,110.8C604.5,110.8 604.6,111.2 604.6,111.1L604.6,110.8M606.6,105.1C606.6,104.9 606.7,104.7 606.7,104.4C606.6,104.5 606.5,104.6 606.4,104.7C606.4,104.7 606.5,105 606.6,105.1M618.9,100.9L620,101.4C620,101.2 620,101.1 620.3,100.8L620.3,100.7C620.3,100.7 620.2,100.8 620.1,100.8C619.9,100.9 619.6,100.8 619.5,100.7L619.4,100.6C619.2,100.7 619.1,100.8 618.9,100.9M620.5,104.8L620.6,104L620.4,104L620.1,104.5C620,104.6 619.9,104.8 619.9,105C619.8,105.3 619.7,105.6 619.8,105.8C619.8,106 619.9,106.2 620.2,106.3L620.3,106.3C620.4,106.2 620.5,106.2 620.5,106.2L620.5,105.9C620.4,105.7 620.4,105.3 620.5,104.8M621.1,100.1L621.1,99.9L620.9,100L621.1,100.1ZM627.7,100.8C627.7,100.9 627.7,100.7 627.9,100.6L627.8,100.7C627.8,100.7 627.7,100.7 627.7,100.8M629.1,100L629.5,99.7C629.3,99.8 629.1,99.9 628.9,100C628.7,100.1 628.5,100.2 628.3,100.4L628.4,100.4C628.6,100.4 628.7,100.4 628.8,100.3C628.9,100.2 629,100.1 629.1,100M629.9,101C629.9,101 629.9,100.9 629.9,101M627.6,101.4L627.9,101.6L628.5,101.9L628.7,101.4L628.3,101.4C628,101.5 627.8,101.4 627.6,101.4M622.1,101.3L622.8,101.5C623,101.6 623.2,101.6 623.3,101.7L623.1,101.5L624.1,101.2C624.1,101.2 624.2,101.2 624.2,101.1L624.8,100.8C624.5,100.7 624.5,100.6 624.4,100.4C624.3,100.2 624.5,100.7 624.3,100.7L624.1,100.7C624,100.7 623.7,100.7 623.4,100.8C623,100.8 622.6,100.9 622.4,100.9L621.9,100.9L622.1,101.3ZM624.2,106.3C624.4,105.9 624.5,105.3 624.6,104.6L624.3,104.9C623.9,104.7 623.7,104.6 623.6,104.5C623.7,104.6 623.7,104.8 623.9,105.1L624,105.5L624,106C624.1,106.1 624.1,106.2 624.2,106.3M627.7,107.2C627.7,107.3 627.7,107.3 627.7,107.2ZM630.4,105C630.5,104.7 630.6,104.5 630.6,104.2L630.3,104L628.9,103.3L628.7,103.5C627.9,104.1 627.8,104 627.2,103.8L627.1,103.7L627.1,105.5C627.1,106 627.2,106.3 627.3,106.6C627.3,106.4 627.6,106 628.2,105.5L628.8,105.1L629.1,105.8C629.3,106.2 629.3,106.4 629.4,106.6C629.5,106.8 629.5,106.9 629.8,107.3C629.9,107.3 629.9,107.4 629.9,107.3L629.9,105.9C629.9,105.8 630,105.7 630,105.5C630.2,105.5 630.2,105.3 630.4,105M633.6,100.9C633.9,100.7 634.3,100.4 634.8,100.1C634,100.4 633.3,100.8 632.8,101.3C633,101.3 633.3,101.2 633.6,100.9M649.3,102.7L647.9,102.6C648.2,102.7 648.6,102.8 649.3,102.7M649.3,100.1C649.6,100.2 649.9,100.4 650.3,100.8L651,101.5L650.5,101.6L651.9,101.7L652.1,102.8L651.7,103C648.1,104.6 647.5,103.7 646.7,102.8C646.5,102.6 646.4,102.4 646.1,102.2C645.8,102 645.7,102 645.6,101.9C645.5,101.9 645.3,101.8 645.1,101.7L644.6,101.4L644.5,101.4L642.2,100.4C641.9,100.3 641.5,100 641.1,99.8C640.8,99.6 640.4,99.4 640.3,99.4C639.2,99.1 637.8,99.9 636.7,100.6L636.4,100.8C635.6,101.3 635,101.7 634.6,102C633.5,102.8 633.2,103 632.1,102.4L632.1,103.2C632.1,104 632.1,104.7 631.8,105.6C631.7,105.8 631.6,106 631.6,106.2L631.5,106.4L631.5,107.5C631.5,107.7 631.5,107.9 631.4,108C631.2,108.3 631.1,108.4 630.6,108.5L630.3,108.6L629.9,108.7L629.7,108.4C629.3,107.9 629.1,107.7 629,107.4C628.8,107.6 628.5,107.8 628,108.1L627.6,108.3L627.3,107.9C626.6,106.9 626.6,106.6 626.5,105.7L626.5,105.4C626.5,104.9 626.4,104.6 626.5,104.2C626.5,103.8 626.6,103.5 626.6,103L626.7,102.5L626.7,102.6C626.7,102.8 626.6,103 626.6,103.1L626.6,103.4C626.5,104.3 626.1,106.9 625.5,107.5L625.3,107.7L625.1,107.7C623.7,107.7 623.6,106.9 623.6,106.2L623.6,106L623.5,105.6C623.4,105.4 623.4,105.2 623.3,105.1C623.2,104.8 623.1,104.6 623,103.8L622.9,103C622.8,102.8 622.8,102.6 622.7,102.3L622.7,102.1L622.3,105.1C622.2,105.6 622.2,105.9 622.2,106.1C622.2,106.4 622.2,106.6 622.1,106.7C622,107 621.8,107.1 621.5,107.3C621.4,107.4 621.2,107.5 621.2,107.5L621,107.7L620.7,107.6C620.5,107.5 620.4,107.5 620.3,107.4C619.8,107.1 619.5,106.6 619.4,106.1C619.3,105.7 619.4,105.2 619.5,104.8C619.3,104.8 619.1,104.7 619,104.7L618.7,104.5L618.8,104.1C618.8,103.9 618.8,103.8 618.9,103.8C619,103.4 619,103.3 619.3,102.8L619.3,102.7C619,102.5 618.8,102.1 618.6,101.6L619,101.2L618.9,101.2L617.9,101.5L618.2,100.5C618.3,100.3 618.3,100.2 618.4,100C617.2,100.9 616,101.6 615,101.7L613.7,101.9L614.5,100.8C614.8,100.4 615.7,99.7 616.5,99L616.2,99.1C615.7,99.4 615.3,99.6 614.9,99.8C614.7,100 614.6,100.1 614.5,100.1C614.4,100.2 614.4,100.2 614.3,100.2C614,100.4 613.9,100.3 613.7,100.1C613.7,100.1 613.8,100.1 613.8,100.2L613.8,100L613.7,100.1L613.8,100L613.7,99.3L613.7,99.1C613.7,99.1 613.9,99 614.2,98.8C614.5,98.6 614.9,98.3 615.4,97.9C615.9,97.6 616.3,97.2 616.8,96.9C616.3,97.2 615.7,97.6 615.2,97.9C613.5,98.9 611.9,99.9 610.7,100.5L610.1,99.5C610.4,99.2 611,98.8 611.7,98.3L610,99.3C609.5,99.6 609.3,99.8 609.2,100C609,100.7 609.3,101.7 608.3,104.6C608.1,105.1 608.2,105.2 608.2,105.3L608.2,105.7C608.1,105.9 608,105.9 607.8,106.1L607.6,106.3L607.2,106.6L606.8,106.3C606.4,106 606.2,105.7 606.1,105.5C605.2,106.3 605.3,105.6 605.6,104.9L605.6,104.8L605.5,104.7L605.7,104.4L605.8,104.2C605.9,104 606,103.9 606.1,103.8C606.3,103.3 606.7,103 607,102.8C607.2,102.4 607.4,102.1 607.5,101.7C607.6,101.1 607.6,100.5 607.5,99.7L607.4,99.3L607.8,99.1C608.6,98.7 609.8,97.8 611,96.9C611.4,96.6 611.8,96.3 612.1,96.1C609.8,97.5 607.4,98.9 606.2,99.4C606.2,99.6 606.2,99.8 605.9,99.9C605.7,100 605.6,100 605.4,99.9L605.2,100.6C604.5,103.3 604.3,103.9 605.1,107.4C605.8,107.5 606.4,107.5 606.9,108L607.4,108.5L606.9,108.9L606,109C606,109 606,109.1 606.1,109.3L606.4,109.8L605.9,110.1L605.6,110.3C605.7,110.4 605.7,110.4 605.8,110.5C606,110.9 605.9,111.1 605.7,111.2L605.7,111.7C605.7,111.8 605.7,112 605.8,112.1C605.8,112.3 605.9,112.5 606,112.7C606.1,113.1 606.2,113.5 606.3,113.8C606.4,114.5 606.5,114.7 607.5,115L608.3,115.2L607.8,115.8C607.8,116 607.7,116.1 607.6,116.2L607.7,116.2C607.8,116.1 607.9,116.1 608.1,116.3L609.7,116.7L609.6,117.8L609.5,117.8C613.3,118.1 623.9,118.1 634,118.1C643.8,118.1 653.2,118.1 656.3,118.3L656.3,119.2C657,119.1 657.8,119.1 658.5,119C660.1,118.9 661.9,118.8 664.2,118.2C664.4,118.1 664.9,118.1 665.4,118C665.9,117.9 666.5,117.9 667.1,117.8C670.5,117.5 675.6,117.3 676.5,117.7L676.3,118.8L675.3,118.9C671,119.5 657.8,121.3 656.7,121.8C655.3,122.4 654.5,122.4 653.6,122.5C653.1,122.5 652.5,122.6 651.9,122.8C651.1,123 650.8,123.2 650.5,123.3C649.8,123.6 649.6,123.7 647.6,123.5C646.1,123.3 645.8,123.6 645.4,124C645.1,124.3 644.7,124.7 643.8,124.9L641.8,125.8C641.6,126 641.4,126.1 641.2,126.1C641.8,126.1 642.3,126.1 642.9,126.4L642.8,127.3C644.2,127.1 645.9,127.1 648.3,128L648.2,128.6C648.7,128.6 649.2,128.6 649.7,128.7C650.3,128.8 650.7,128.8 651.1,128.9C651.6,129 652.1,129.1 653,129.2L653.3,129.2L653.5,129.4C653.7,129.7 653.8,129.9 653.8,130.1L654.8,130.1L654.6,129.1L654.7,129.1C655,129 655.7,128.9 656.5,128.8C657.3,128.7 658.4,128.7 659.6,128.6C665.6,128.4 675.2,128.4 677.6,128.5C681.1,128.6 684.7,128.5 688.2,128.4C690.2,128.4 692.3,128.3 694.3,128.3L693.8,128.3L693.7,127.2C695,126.9 696.5,126.9 697.9,127L700.2,127C700.1,127 700.1,126.9 700,126.9L699.1,126.4L700,125.9C700.5,125.7 700.8,125.5 701.1,125.5C701.4,123.6 701.7,123.4 701.9,123.8C702.2,123.5 702.3,123.7 702.2,125.5C702.4,125.5 702.6,125.2 703.8,123.4C704.2,122.7 704.5,122 704.8,121.3C705,120.9 705.1,120.4 705.4,120L705.5,119.9L705.8,119.4C705.6,119.4 705.5,119.4 705.3,119.2C705.2,119.1 705.2,119 705.1,118.9C705.1,118.9 705.1,118.8 705,118.7L704.7,118L705.4,117.9C706.9,117.8 706.9,117.7 707.3,116.8L707.5,116.3C707.7,115.8 708,115.3 708.2,114.8C709.2,112.7 710.6,109.9 710.3,108.1L710.3,108.3L708.6,113.4L708.3,114.2L707.6,113.6L707.5,113.5C707.3,113.4 707.2,113.3 707,112.8C706.7,112 706.7,111.7 707,111.3L706.9,111.3C706.8,111.3 706.8,111.2 706.7,111.2L706.2,111L706.4,110.5C706.6,110 707.1,109.8 707.6,109.5L707.8,109.4C707.7,109.3 707.4,109.3 707.1,109.1L706.1,108.5L706.2,108.5C706,108.5 705.8,108.4 705.6,108.4C704.7,108.2 703.8,107.9 702.9,107.4L703.1,106.8C702.1,106.7 701.2,106.6 700.4,106.4C698.7,106 697.1,105.6 695.6,105.2C694.7,105 693.8,104.7 692.9,104.5L693,103.7L692.9,103.7C691.5,103.4 690.2,103.1 689.6,102.9L689.1,102.8L689.1,101.7L689.2,101.7C690.3,101.9 691.4,102 692.4,102.2L694.9,102.6C693.9,102 693.7,101.9 692.7,100.9C692.5,100.7 692.3,100.6 692.2,100.5C692,100.3 691.9,100.2 691.6,99.9C691.5,99.8 691.4,99.7 691.3,99.5C691.2,99.3 691.1,99.2 690.9,99.1C690.1,99.1 690,98.9 689.6,98.3C689.4,98 689.1,97.5 688.5,96.9L688.2,96.6C688,96.4 687.8,96.1 687.6,95.8C687.4,95.5 687.1,95.1 686.9,94.8C685.6,93 684.2,90.7 683.4,89.3L681.8,86.7L681.7,86.8C681.6,87 681.4,87.2 681.5,87.9C681.5,88.2 681.6,88.5 681.7,88.7C681.9,89.2 682.1,89.7 681.6,90.6C681.3,91.1 680.9,91.4 680.6,91.7C680.1,92.1 679.7,92.5 680.7,94.3C681,94.8 682,96.1 682.9,97.4C684.3,99.2 685.8,101.2 685.9,101.8L686,102.3L685.5,102.4C685,102.5 684.4,102.3 683.9,102L683.3,102.6L683,102.5C682.8,102.4 682.6,102.3 682.4,102.2C682.5,102.3 682.5,102.4 682.5,102.5L682.8,103.6L681.7,103.2C680.9,102.9 679.9,101.8 679.4,101.2L679.1,100.9C677.8,99.5 677.4,99.1 677.2,98.7C677,98.4 677.1,98.3 677.1,98.1C677.1,97.9 677.1,97.5 676.4,96C676.3,95.7 676.1,95.4 675.9,95.1C675.8,95 675.8,94.9 675.7,94.6C675.5,94.2 675.4,94.1 675.4,94.1C675.4,94 675.3,94 675.3,93.9C674.7,94.8 674.1,95.7 673.6,96.6C675,97.5 674.9,97.5 674,99C673.9,99.2 673.8,99.4 673.6,99.6L674.1,99.4L674.1,100.2C674.1,100.8 674,101.2 673.9,101.6L674,101.5L674.1,102.3L674.1,104.8C674,107.2 673.5,110 672.8,111.4L672.4,112.1L671.9,111.5C671.8,111.4 671.8,111.4 671.7,111.3C671.3,110.7 671.4,110.1 671.4,109.8C671.4,109.7 671.2,109.5 671.1,109.4C671,109.3 671,109.2 670.9,109.1L670.8,109C669.8,109.5 669.3,109.7 668.4,109L668,108.7L668.3,108.3C669,107.2 670,107 670.9,106.7C671.5,106.5 672.1,106.4 672.4,105.8L671.4,105.8C671.1,105.8 670.9,105.9 670.8,105.9L668.5,105.9L668.5,106.2C668.4,106.5 668.4,106.8 668.3,107.2C668,109 667.4,111.4 666.7,112.1L666.4,112.4L666,112.2C665.5,111.9 665.1,111.3 664.8,110.7C664.6,110.2 664.5,109.7 664.4,109.3C664.3,108.9 664.4,108.6 664.4,108.3L664.3,108.3L664.4,108.1L664.2,107.8C663.8,106.9 663.8,106.6 664,105.8L664,105.7L664.1,105.2L664,105.2C664,105.6 663.9,106 663.9,106.4C663.8,107.2 663.7,107.8 663.6,108.5C663.5,109.1 663.4,109.5 663.4,109.8C663.3,110.8 663.3,111.3 662,111.8L661.5,112L661.3,111.5C661.2,111.2 661.1,111.1 661,111C660.9,110.8 660.8,110.7 660.5,109.9L660.4,109.7L660.5,109.5C660.6,109.4 660.6,109.3 660.7,109.2L660.4,109.1L660.2,109.1C659.9,110.1 659.6,111.2 659,111.5L658.7,111.7L658.4,111.4C657.6,110.7 657.6,110.7 657.5,109.9L657.5,108.7L657.8,108.5C657.7,108.5 657.6,108.4 657.5,108.4L657,108.1L657.3,107.6C657.9,106.7 658.8,106.3 659.8,106L659.9,105.6L659.8,105.6C659.5,105.6 659.1,105.7 658.9,105.7L658.6,105.7L658.4,105.5C657.8,104.9 656.7,103.1 656,101.9C656,101.9 655.9,102 655.8,102L655.1,102.4L654.9,101.7C654.7,100.8 652.5,97.7 651.4,96.2L651,95.6L645.9,88.3C645.9,88.6 645.7,88.9 645.4,89.3C646.1,90.2 646.3,90.7 645.4,91.7L645.3,91.8C645.5,92 645.6,92.3 645.9,92.6C646,92.8 646.1,92.9 646.2,93C646.6,93.5 646.9,93.9 647.1,94.7L647.3,95.5L646.5,95.4L646.3,95.4C647.5,97 648.4,98.1 648.6,98.3L649.1,98.5L648.9,99C648.9,99.1 648.8,99.1 648.8,99.1C648.9,99.3 648.9,99.4 648.7,99.7C649.4,100 649.4,100.1 649.3,100.1M647,100.1L648.2,99.3L648.3,99.2L648.4,99.2L648.4,99.1C646.7,97.2 640.6,88.7 636.9,83.2C636.1,82 635.5,81 635,80.2C634.5,79.4 634.1,78.8 634.1,78.5L635,77.9C635.8,78.4 636.8,79.7 637.5,80.9L637.5,81C637.4,80.9 637.4,80.7 637.4,80.6L638.3,80.1L639.2,80.9L640,80.3C640.2,80.5 640.7,81.1 641.4,81.9C640.5,80.4 639.5,78.7 639.2,77.6L640,77C640.8,77.6 641.1,78 641.4,78.6C641.5,78.8 641.6,78.9 641.7,79.2C641.9,79.5 642,79.7 642.1,79.9L642.3,80.1C642.7,80.7 643,81.2 643.4,81.8C643.7,82.3 644,82.8 644.3,83.2L652.7,95.2L653.1,95.8C654,97.1 655.7,99.4 656.4,100.9L657.1,100.8L657.4,101.3C658,102.3 659.1,104.1 659.7,104.8C659.9,104.8 660.1,104.8 660.3,104.7C661.4,104.6 662.7,104.5 663.6,104.8C663.6,104.6 663.6,104.3 663.7,104.1L663.8,103.4L664.5,103.6C665,103.8 665.2,104 665.3,104.2C665.9,103.5 666.5,102.7 667.4,102.3L668.2,103.1L667.8,103.8C668.4,103.2 669,102.5 669.4,101.9C669.6,101.6 669.8,101.4 670,101.2L670.9,101.8L669.1,104.9L671.4,104.9C671.5,104.9 671.7,104.9 672,104.8L672.5,104.8C673.1,104.8 673.4,104.9 673.6,104.9L673.6,103.3C673.5,103.4 673.1,103.8 673.1,103.8C673,103.9 673,104 673,104.1L671.9,103.7C671.9,103.6 672,103.5 672.1,103.4C672.1,103.4 672.1,103.3 672.2,103.3C672.4,103 672.6,102.7 672.8,102.4C673,102.1 673.2,101.9 673.3,101.5C673.2,101.7 673,101.9 672.9,102C672.5,102.6 672.1,103.2 671.6,103.6L670.7,102.9C671,102.4 671.4,101.8 671.7,101.3C672.1,100.8 672.4,100.2 672.7,99.6C673,99 673.3,98.5 673.5,98.2L673.6,98C673.5,98.2 673.3,98.3 673.2,98.5C672.9,98.9 672.6,99.2 672.3,99.6L671.3,99.1C671.5,98.3 673.9,94.5 675.6,91.8C675.9,91.3 676.3,90.8 676.6,90.4C676.9,90 677.1,89.7 677.3,89.4L677.8,88.9L678.8,89.4C678.6,90.1 677.8,91.5 677.1,92.4L677,92.6L677.5,92.8C678.3,93.1 678.8,94 679.1,94.9L680.2,94.9C680.2,94.8 680.1,94.8 680.1,94.7C678.6,92.1 679.4,91.5 680.3,90.7C680.6,90.5 680.8,90.2 681,89.9C681.3,89.4 681.2,89.2 681.1,88.9C681,88.6 680.9,88.3 680.8,87.8C680.7,86.8 681,86.4 681.2,86.1C681.3,85.9 681.4,85.8 681.3,85.5L681.2,84.5L682.1,85L682.2,85.1C682.3,85.1 682.4,85.2 682.5,85.2L682.6,85.2C683.4,85.4 683.7,85.7 683.7,86C683.9,86.2 683.8,86.4 683.4,86.5L684.8,88.7C685.5,90 687,92.3 688.3,94.1C688.6,94.5 688.8,94.8 689,95.1C689.2,95.4 689.4,95.6 689.6,95.8L689.9,96.1C690.5,96.8 690.9,97.3 691.1,97.7C691.3,98 691.3,98 691.6,98L691.8,98C692.3,98.2 692.4,98.4 692.7,98.7C692.8,98.8 692.8,98.9 693,99C693.3,99.3 694.4,100.4 694.4,100.4L695.1,99.8C695.9,100.2 696.3,100.6 696.8,101C697.3,101.4 697.8,101.9 698.9,102.5L699,102.5C699.1,102.6 699.3,102.7 699.3,103C699.4,103.1 699.4,103.1 699.5,103.2L699.6,103.2L699.6,103.3L699.6,103.2L699.6,103.3C699.7,103.5 699.6,103.6 699.5,103.7C700,103.8 700.5,103.8 701,103.9C701.8,104 702.6,104.1 703.5,104.2C704,104.3 704.6,104.3 705.1,104.3C706.1,104.4 707,104.4 707.9,104.6L708,104.6C708.1,104.6 708.1,104.6 708.2,104.7L708.4,104.7L708.9,104.9L708.7,106L708.2,106C708.7,106.1 709.1,106.2 709.4,106.3L709.2,107.4L709,107.4L709.2,108.4L709.1,108.4L709.2,108.5L709.5,107.7C709.5,107.5 709.6,107.3 709.6,107.1C709.6,106.7 709.7,106.4 709.8,106L710.1,105.2L710.7,105.7C710.8,105.8 710.8,105.8 710.9,105.8C711.3,105.9 711.3,106 711.3,106.3C711.3,106.3 711.3,106.4 711.5,106.7C712.6,109 710.9,112.5 709.6,115C709.3,115.6 709.1,116.1 708.9,116.5L708.7,117C708.2,118.1 708.1,118.4 707.2,118.6L707.6,118.9L707.3,119.4L706.6,120.3C706.4,120.7 706.2,121.1 706.1,121.5C705.8,122.3 705.5,123 705,123.8C703.3,126.3 703,126.5 702.4,126.4L702.4,126.7C702.4,126.7 702.4,126.8 702.5,127L702.6,127.5L702.2,127.7C702,127.8 701.7,127.9 701.5,127.9L701.4,128.2C701.6,127.9 700.5,128.1 702.6,129.4C701.6,129.5 701.4,129.7 700.6,129.2C700.5,129.2 700.4,129.2 700.1,129.3L699.9,129.3L700.5,129.8L699.9,130.2C699.6,130.4 699,130.5 698.1,130.6C698.3,130.8 698.4,131 698.6,131.3L698.8,131.8L698.3,132C698.1,132.1 697.6,132.2 697,132.3L697.4,132.7L696.9,133.1C696.8,133.2 696.7,133.2 696.7,133.3C696.6,133.3 696.6,133.4 696.5,133.4L695.3,133.4C695.4,133.4 695.4,133.5 695.5,133.5L695.6,133.6L696.2,134.1L695.5,134.5C695.2,134.7 694.7,134.8 694,134.9C694.1,135 694.1,135.1 694.2,135.2L694.5,135.7L693.9,136C693.6,136.1 693.2,136.2 692.6,136.3L693.3,136.7L692.5,137.2L692.4,137.3C692.2,137.4 692.1,137.5 691.5,137.6L690.5,137.6C690.6,137.6 690.6,137.7 690.7,137.7L691.6,138.2L690.7,138.7C690.5,138.8 690.2,138.9 689.7,139L689.5,139.3C688.9,140.7 688.3,141 687.5,140.8L687.8,141.5L687,141.5L671.2,141.3L667.8,141.3L667.8,140.2L671.4,140.2C672,140.2 672.5,140.1 672.8,139.9L670.1,139.9C668.5,139.9 666.9,139.9 665.3,139.7L665.2,138.6C665.9,138.4 666.5,138.4 667,138.4C667.4,138.4 667.6,138.4 667.9,138.3L667.2,137.9L667.4,136.8L668.4,136.8C667.6,136.6 666.4,136.6 665.4,136.7C664.9,136.7 664.3,136.8 663.9,136.7L663.8,136.7L663.7,135.6C664,135.5 664.4,135.4 664.7,135.4C664.5,135.4 664.3,135.4 664,135.3L663.1,135.3C663,135.3 662.9,135.3 662.8,135.2C662.7,135.1 662.6,134.9 662.5,134.8C662.4,134.6 662.4,134.3 662.5,134.1C662.3,133.9 661.8,133.9 661.4,133.8C661.1,133.8 660.9,133.7 660.6,133.7L660.1,133.5C659.9,133.4 659.8,133.4 659.7,133.3C659.3,133 659.2,132.9 659.3,132.7C658.5,132.1 656.9,132.1 655.3,132.1L653.4,132.1L653.4,131L655.6,130.8C655.2,130.7 654.8,130.7 654.3,130.7L653.4,130.7L653.2,130.5C653,130.2 652.9,130 652.9,129.8C652.2,129.8 651.7,129.6 651.2,129.5C650.8,129.4 650.5,129.3 650,129.3C649.1,129.2 648,129.2 647,129.3L645.9,129.3L645.5,128.3C645.6,128.2 645.8,128.1 645.9,128C644.4,127.8 643.3,127.9 642.4,128.1C641,128.3 640.1,128.4 639.2,127.4L638.7,126.8L639.4,126.5L639.7,126.3C639.6,126.3 639.5,126.2 639.4,126.2C639.2,126.1 639.2,126 639.2,125.9L638.8,125.5L638.2,126C638,126.2 637.8,126.3 637.7,126.4C637.8,126.4 637.9,126.5 638,126.6L638.7,127L638,127.5C637.2,128.1 635.9,127.9 634.3,127.8C633.1,127.7 631.7,127.5 630.6,127.7L630.3,129C633.7,131.4 635.9,131.4 637.7,131.4C639.4,131.4 640.7,131.5 642.4,133C642.6,133.2 643.1,133.7 643.4,134.2C643.5,134.3 643.5,134.4 643.6,134.5C643.7,134.6 643.7,134.7 643.7,134.8C643.9,135.4 643.9,135.8 643.8,136.1L643.9,136.2C644.2,136.5 644.5,136.8 644.8,137C645.5,137.6 646.2,138.2 646.8,139.1L646.9,139.3C647.7,140.6 648.2,141.2 649.2,142.2C649.3,142.3 649.5,142.5 649.6,142.6C649.9,142.9 650.2,143.2 650.7,143.5C651.7,144.2 652.5,144.8 653.1,145.6C653.7,146.4 654,147.4 654.3,148.7L654.4,149.4L652.7,149.4C652.1,149.2 652.2,149 652.3,148.6C652.3,148.5 652.1,149 652.1,149C651.9,148.9 651.6,148.8 651.4,148.8C651.2,148.7 650.9,148.6 650.8,148.6L649.7,148.2L650.7,147.6L651,147.4L650.7,147.2L650.4,146.9C650.2,146.5 650,146.4 649.4,146.3L649.3,145.4C647.9,145.2 647.2,146 646.6,146.7C645.9,147.5 645.3,148.2 644.2,148L643.6,147.9L643.7,147.3L643.9,146.2C643.1,146.2 642.5,146.4 642.1,146.5C641.7,146.6 641.4,146.7 641.1,146.7L641,146.7L637.5,146.2L636.4,146L637.3,145.1C636.3,145.1 635.5,145 634.9,144.8L634.9,143.8C634.1,143.8 633.4,143.7 632.8,143.6L632.5,142.6L631.8,142.6C631.4,142.6 631.1,142.6 630.7,142.5L630.5,142.5L629.2,142.4L630.2,141.5C630.2,141.4 630.3,141.4 630.4,141.4C629.7,141.3 629,141.2 628.4,141.1L627.3,140.9L628.3,139.9C627.3,139.8 626.5,139.6 626.1,139.4L625.4,138.9L625.8,138.6C625.3,138.5 625,138.3 624.7,138.1C624.6,138 624.5,138 624.5,137.9C624.4,137.8 623.6,137 623.6,137C623.2,136.9 622.9,136.8 622.7,136.7L622.1,136.2L622.6,135.9C622.1,135.8 621.6,135.5 621.3,135.1L620.9,134.6L621,134.5C620.6,134.4 620.3,134.3 619.9,134.2L619.3,134L619.6,133.4C619.7,133.2 619.7,133.3 619.7,133.3L619.7,133.2C619.7,133.1 619.7,133 619.6,133C619.2,132.9 618.9,132.9 618.6,132.8L618.1,132.6L618.3,132C618.3,131.9 618.4,131.8 618.4,131.7L617.3,131.5L616.3,131.3L617,130.6C617.1,130.5 617.2,130.4 617.3,130.4C616.7,130.3 616.3,130.1 616,130L615.3,129.5L616,129C615.6,128.9 615.3,128.9 615,128.8L614.3,128.6L614.6,128C614.7,127.8 614.8,127.7 614.9,127.5C614.3,127.4 613.8,127.1 613.5,126.8L613,126.3L613.4,126.1C613.3,126.1 613.2,126.1 613.1,126C612.6,125.9 612.6,125.6 612.5,125.3C612.5,125.2 612.5,125.1 612.4,124.9L612.1,124.3C611.8,124.1 611.5,123.9 611.3,123.7L610.7,122.9L611,122.9C610.8,122.8 610.7,122.8 610.6,122.7L610.2,122.5L610.4,122.1C610.5,121.9 610.5,121.8 610.6,121.6C610.5,121.6 610.4,121.6 610.3,121.5C609.8,121.4 609.6,121.2 609.4,120.7C609.4,120.6 609.3,120.5 609.3,120.3L609.1,119.8L609.3,119.7C608.9,119.6 608.6,119.5 608.4,119.4L607.8,119L608.4,118.5L608.5,118.4C608.2,118.4 607.9,118.3 607.8,118.3L607.3,118.1L607.4,117.6C607.4,117.4 607.5,117.3 607.5,117.3L607.5,117.2C607.5,117.1 607.5,117 607.4,116.9L607,116.8L606.7,116.7L606.6,116.4C606.4,115.8 606.4,115.5 606.6,115.3C605.7,114.9 605.6,114.4 605.4,113.5C605.3,113.2 605.3,112.9 605.2,112.5C605.1,112.2 605.1,112 605,111.7C605,111.5 604.9,111.3 604.9,111.2C604.8,110.5 604.8,110.3 604.8,110.2C604.7,110.1 604,109.4 604,109.4L604.7,109.1L605,108.9L604.5,108.5L605.1,108.1L604.8,108.1C604.7,108.1 604.6,108.1 604.4,108L604,108L603.9,107.6C602.9,103.5 603.1,102.9 603.9,99.9C604,99.6 604.1,99.3 604.2,98.7L604.3,98.3L604.9,98.3L604.9,98.1L605.3,98C606.4,97.8 610.5,95.3 613.3,93.5C613.8,93.2 614.3,92.8 614.8,92.5C615.2,92.2 615.5,92 615.8,91.8C616.9,91.1 621.5,88 624.4,86.2C625,85.8 625.5,85.5 625.9,85.3C626.3,85.1 626.6,84.9 626.8,84.8L627.5,85.6C627.2,86.1 625.9,87.1 624.2,88.4C624.7,88.1 625,87.9 625.3,87.8L626.5,87.4L626,88.5C625.7,89.2 623,91.2 619.9,93.4C620,93.4 620,93.4 620.1,93.3L621.3,93L620.8,94.1C620.7,94.4 620.4,94.7 620,95.1C620.3,94.9 620.6,94.8 620.9,94.7L621.5,95.7L620.9,96.2C621.3,96 621.6,95.9 622,95.8L623.3,95.5L622.6,96.7C622.6,96.8 622.5,96.9 622.4,96.9L622.7,96.8C622.9,96.7 623.2,96.6 623.5,96.5C623.9,96.3 624.1,96.1 624.2,96C624.5,95.8 624.7,95.5 625.5,95.2L626.6,94.7L626.3,95.9L626.2,96.4L626.1,96.6L625.9,96.7C625.2,97.1 624.5,97.5 623.8,97.9C623.4,98.2 623,98.4 622.6,98.7C623.3,98.8 623.5,98.8 623.7,99.1C623.8,99.2 623.9,99.4 623.9,99.5L624.6,99.5C625,99.5 625.3,99.6 625.4,99.6C625.8,99.7 625.9,99.8 626,99.8C626.1,99.8 625.9,99.7 626.3,99.7C627,99.7 627.5,99.3 628.2,98.7C628.9,98.1 629.9,97.3 631.6,96.5C631.8,96.4 632,96.3 632.2,96.2C633.2,95.7 634,95.2 635.3,95.9L636,96.3L635.3,96.8C635.3,96.8 635.2,96.8 635.2,96.9L635.2,97L635,97.1L633.3,97.8C632.3,98.2 631,98.8 629.8,99.4L630.1,100C630.4,100.4 630.2,100.6 630,100.9C630,100.9 630.3,100.8 630.9,100.9C630.9,100.8 631,100.7 631,100.6L631.2,100.3C631.2,100.3 637.8,96 639.8,97.6L640.5,98.1C640.8,98.2 641.1,98.4 641.5,98.6C641.8,98.8 642.2,99 642.5,99.1L644.9,100.1L645,100.1L645.1,100.2L645.2,100.2L645.7,100.5C645.9,100.6 646,100.6 646.1,100.7C646.3,100.8 646.5,100.8 646.8,101C647,101.2 647.2,101.3 647.4,101.5L647.4,101.1L648.2,100.9L647.6,100.9L647,100.1Z" style="fill:rgb(165,160,158);fill-rule:nonzero;"/>
            </g>
        </g>
        <path d="M645.9,95.5L639.2,93.5L633.5,104.6L639.9,116.4L655.5,126.5L662.7,126.5L671.6,122.1L679,117.4L683.9,110L684.7,102.9L681.5,97.2L676.3,96.7L672.8,96.7L663.7,99.4L661.4,102.6L658.5,105.3L652,99.4L645.9,95.5Z" style="fill:white;"/>
        <path d="M661.7,99.1C668.3,96.4 677.3,92.4 684.8,97.6C692,102.5 690.9,111.7 685.5,117.9C682,121.9 674.1,126.9 667.4,129.6C662.3,131.6 661.3,132.2 655.8,130.6C652.2,129.5 647.9,127.9 645,126.2C628.4,116.6 625.1,103.2 636.3,87.9C640.5,82.1 646.1,77.9 650.8,72.7C654.3,68.9 661.7,61.1 661.6,53.4C658.4,58.8 659.1,58.6 653.5,63.5C650.4,66.2 646.7,68.9 643.3,71.4C636.8,76.2 629.1,82.5 624.9,89.8C613.5,109.5 625.2,127.2 645.8,134C648.6,134.9 657.4,137.7 660.4,137.6C663.7,137.6 672.2,134.9 675.2,133.7C684.3,130 692.1,125 696.3,118C701.9,108.6 700.7,96.8 690.9,93.5C682.1,90.5 666.3,94.1 661.7,99.1" style="fill:rgb(204,54,52);"/>
        <path d="M670.1,97.3C686.9,98.3 683,111.4 673.4,118.6C671.1,120.3 662.8,125.3 659.5,124.9C655.1,124.4 648,120.7 645.3,118.5C635.2,110.4 637.8,99.8 644.4,90.1C648.9,83.5 659.5,74.7 660.4,65C649.4,82.4 626,91.4 632.7,110.8C635.6,119.2 645.7,125.1 653.5,128.1C657.4,129.6 659.1,130.7 663.3,129.3C700.8,116 689,90.2 670.1,97.3" style="fill:rgb(236,101,37);"/>
        <path d="M640,104.4C645.6,95.5 659,94.7 662.2,79.8C663,76.3 663,68.6 661.8,65.4C660.6,75.6 658.2,80.9 652.8,86.9C649.5,90.6 639.6,98 640,104.4" style="fill:rgb(236,101,37);"/>
        <path d="M651.3,143L668.8,143L668.8,139.5L651.3,139.4L651.3,143Z" style="fill:rgb(204,54,52);"/>
        <path d="M653.8,147.9L666.2,147.9L666.2,144.3L654,144.3L653.8,147.9Z" style="fill:rgb(204,54,52);"/>
        <path d="M720,79.9L722.6,79.3L725.6,76.1L726,77.6L723.9,79.7L726.7,80.5L727.1,81.9L722.9,80.5L720.3,81.1L720,79.9ZM718.5,74.4L723.5,72.7L722.9,70.9L723.9,70.6L725.5,75.4L724.5,75.7L723.9,73.9L718.9,75.6L718.5,74.4ZM717.1,70.7L723,68.3L723.5,69.5L717.6,71.9L717.1,70.7ZM714.9,65.8L720.6,63.1L721.1,64.3L716.4,66.5L717.7,69.4L716.7,69.9L714.9,65.8ZM715.7,61.8L717.3,59.9L714.8,60.3L715.7,61.8ZM714.7,65.1L714,63.9L715,62.7L713.7,60.5L712.2,60.8L711.5,59.6L718.2,58.6L718.9,59.8L714.7,65.1ZM708.4,55.4L713.5,51.7L716.3,55.5L715.4,56.1L713.4,53.3L712.3,54.1L714.2,56.7L713.3,57.3L711.4,54.7L710,55.7L712.1,58.6L711.2,59.2L708.4,55.4ZM707.8,49.1L708.4,49.8C708.8,50.3 709.1,50.5 709.2,50.6C709.3,50.7 709.5,50.7 709.6,50.7C709.7,50.7 709.9,50.6 710,50.5C710.2,50.4 710.3,50.2 710.3,50C710.3,49.8 710.3,49.6 710.2,49.5C710.1,49.4 709.9,49.2 709.6,48.8L708.9,48L707.8,49.1ZM704.2,50.5L709,46.3L710.8,48.3C711.2,48.8 711.5,49.2 711.6,49.5C711.7,49.8 711.7,50.1 711.6,50.5C711.5,50.8 711.3,51.1 711,51.4C710.6,51.7 710.2,51.9 709.8,51.9C709.4,51.9 709,51.7 708.5,51.3C708.6,51.6 708.6,51.9 708.5,52.2C708.5,52.5 708.4,52.9 708.2,53.4L707.8,54.8L706.8,53.6L707.2,52C707.4,51.4 707.4,51.1 707.5,50.9L707.5,50.4C707.4,50.3 707.3,50.1 707.1,49.9L706.9,49.7L704.9,51.4L704.2,50.5ZM700.2,42.5C699.7,43 699.5,43.6 699.5,44.1C699.5,44.6 699.7,45 700.1,45.3C700.5,45.6 700.9,45.8 701.4,45.7C701.9,45.6 702.4,45.3 702.8,44.7C703.3,44.1 703.5,43.6 703.5,43.1C703.5,42.6 703.3,42.2 702.9,41.9C702.5,41.6 702,41.4 701.6,41.5C701.1,41.6 700.7,42 700.2,42.5M699.1,41.7C699.5,41.2 699.9,40.8 700.4,40.6C700.7,40.4 701.1,40.4 701.4,40.3C701.8,40.3 702.1,40.3 702.4,40.4C702.8,40.5 703.2,40.8 703.6,41.1C704.3,41.7 704.7,42.4 704.8,43.2C704.9,44 704.6,44.8 703.9,45.6C703.2,46.4 702.5,46.8 701.7,46.9C700.9,47 700.1,46.7 699.4,46.1C698.7,45.5 698.3,44.8 698.2,44C698.2,43.3 698.5,42.5 699.1,41.7M694.1,42L697.1,37.7L695.6,36.6L696.2,35.7L700.3,38.6L699.7,39.5L698.2,38.4L695.2,42.7L694.1,42ZM687.5,38L690.6,32.5L691.7,33.1L691.9,38.1L694,34.4L695,35L691.9,40.5L690.8,39.9L690.6,35L688.6,38.6L687.5,38ZM685.2,36.9L688.1,31.2L689.2,31.8L686.3,37.5L685.2,36.9ZM677.8,31.8L679,32.1C678.9,32.5 679,32.9 679.1,33.1C679.3,33.4 679.5,33.5 679.9,33.7C680.3,33.8 680.6,33.8 680.9,33.7C681.2,33.6 681.3,33.4 681.4,33.2C681.5,33.1 681.4,32.9 681.4,32.8C681.3,32.7 681.2,32.5 681,32.4C680.9,32.3 680.6,32.1 680.1,31.8C679.5,31.4 679.1,31.1 678.9,30.8C678.6,30.4 678.6,29.9 678.7,29.4C678.8,29.1 679,28.8 679.2,28.6C679.5,28.4 679.8,28.3 680.2,28.2C680.6,28.2 681,28.2 681.5,28.4C682.3,28.6 682.8,29 683.1,29.5C683.4,30 683.4,30.5 683.3,31L682.1,30.7C682.1,30.4 682.1,30.1 682,29.9C681.9,29.7 681.6,29.6 681.3,29.4C680.9,29.3 680.6,29.3 680.4,29.3C680.2,29.4 680.1,29.5 680.1,29.6C680.1,29.7 680.1,29.9 680.2,30C680.3,30.2 680.6,30.4 681.2,30.8C681.7,31.1 682.1,31.4 682.4,31.7C682.6,31.9 682.8,32.2 682.9,32.5C683,32.8 682.9,33.2 682.8,33.5C682.7,33.8 682.5,34.1 682.2,34.4C681.9,34.6 681.6,34.8 681.2,34.8C680.8,34.8 680.3,34.8 679.8,34.6C679,34.4 678.5,34 678.2,33.5C677.7,33.1 677.6,32.5 677.8,31.8M670.2,31.9L671.6,25.7L673.5,26.1L673.6,30.6L675.7,26.6L677.6,27L676.2,33.2L675,32.9L676.1,28L673.7,32.6L672.5,32.3L672.4,27.1L671.3,32L670.2,31.9ZM667.6,29L667,26.6L665.9,28.8L667.6,29ZM669.6,31.8L668.2,31.6L667.8,30.1L665.3,29.8L664.6,31.2L663.3,31L666.5,25L667.8,25.2L669.6,31.8ZM658,30.8L658.1,24.5L662.8,24.6L662.8,25.7L659.4,25.6L659.4,27L662.6,27L662.6,28.1L659.4,28L659.4,29.7L662.9,29.8L662.9,30.9L658,30.8ZM652.6,27.5L653.5,27.4C654.1,27.4 654.5,27.3 654.6,27.2C654.8,27.1 654.9,27 654.9,26.9C655,26.8 655,26.6 655,26.4C655,26.2 654.9,26 654.8,25.9C654.7,25.8 654.5,25.7 654.3,25.7L653.4,25.7L652.4,25.8L652.6,27.5ZM651.6,31.2L651.2,24.9L653.9,24.7C654.6,24.7 655.1,24.7 655.4,24.8C655.7,24.9 656,25.1 656.2,25.3C656.4,25.6 656.5,25.9 656.5,26.3C656.5,26.8 656.4,27.2 656.2,27.5C655.9,27.8 655.5,28 655,28.2C655.3,28.3 655.5,28.5 655.7,28.7C655.9,28.9 656.2,29.2 656.5,29.7L657.4,30.9L655.9,31L654.9,29.7C654.5,29.2 654.3,28.9 654.2,28.8C654.1,28.7 653.9,28.6 653.8,28.6L652.9,28.6L653.1,31.2L651.6,31.2ZM645.6,26.8L646.3,30.9L647.2,30.7C647.5,30.6 647.8,30.6 648,30.5C648.2,30.4 648.4,30.3 648.5,30.2C648.6,30.1 648.7,29.8 648.7,29.5C648.7,29.2 648.7,28.8 648.6,28.3C648.5,27.8 648.4,27.5 648.3,27.2C648.2,27 648,26.8 647.8,26.7C647.6,26.6 647.4,26.5 647.2,26.5C647,26.5 646.7,26.5 646.1,26.6L645.6,26.8ZM644.1,26L646.4,25.6C646.9,25.5 647.3,25.5 647.6,25.5C648,25.5 648.3,25.7 648.6,25.9C648.9,26.1 649.2,26.4 649.4,26.8C649.6,27.2 649.8,27.7 649.9,28.2C650,28.7 650,29.2 649.9,29.6C649.8,30.1 649.7,30.5 649.4,30.8C649.2,31.1 649,31.3 648.6,31.5C648.3,31.6 648,31.7 647.5,31.8L645.1,32.2L644.1,26ZM638.3,31.6L638,30.6L640.6,29.8L641.4,32.2C641.2,32.5 640.9,32.9 640.5,33.2C640.1,33.5 639.6,33.8 639.1,34C638.5,34.2 637.9,34.2 637.3,34.1C636.7,34 636.3,33.7 635.9,33.3C635.5,32.9 635.2,32.4 635,31.8C634.8,31.2 634.7,30.6 634.9,30C635,29.4 635.3,28.9 635.7,28.5C636,28.2 636.5,27.9 637,27.7C637.8,27.5 638.4,27.4 638.9,27.6C639.4,27.8 639.8,28.1 640.1,28.6L639,29.2C638.8,28.9 638.6,28.7 638.3,28.7C638,28.6 637.7,28.6 637.3,28.7C636.8,28.9 636.4,29.2 636.2,29.6C636,30 636,30.6 636.2,31.3C636.4,32 636.8,32.5 637.2,32.8C637.6,33.1 638.1,33.1 638.6,32.9C638.9,32.8 639.1,32.7 639.3,32.5C639.5,32.3 639.7,32.1 639.8,31.9L639.6,31.1L638.3,31.6ZM630.3,37.3L627.7,31.5L628.8,31L632.9,33.8L631.2,29.9L632.3,29.4L634.9,35.2L633.7,35.7L629.7,33L631.4,36.8L630.3,37.3ZM628.1,38.4L625.2,32.8L626.3,32.2L629.2,37.9L628.1,38.4ZM621.8,42.3L618.4,36.9L620,35.9L623.3,39L622,34.7L623.6,33.7L627,39L626,39.6L623.3,35.4L624.9,40.3L623.9,41L620.2,37.4L622.9,41.6L621.8,42.3ZM615.5,42.5L616.3,41.9C616.8,41.5 617.1,41.3 617.2,41.1C617.3,41 617.3,40.8 617.3,40.7C617.3,40.6 617.2,40.4 617.1,40.3C617,40.1 616.8,40 616.6,40C616.4,40 616.2,40 616.1,40.1C616,40.1 615.8,40.3 615.3,40.7L614.5,41.3L615.5,42.5ZM616.8,46.2L612.9,41.2L615,39.5C615.5,39.1 616,38.8 616.3,38.7C616.6,38.6 616.9,38.6 617.3,38.7C617.6,38.8 617.9,39 618.1,39.3C618.4,39.7 618.5,40.1 618.5,40.5C618.5,40.9 618.3,41.3 617.9,41.7L618.8,41.7C619.1,41.7 619.5,41.9 620,42.1L621.4,42.6L620.2,43.5L618.6,43C618,42.8 617.7,42.7 617.5,42.7L617,42.7C616.9,42.7 616.7,42.9 616.4,43L616.2,43.2L617.8,45.3L616.8,46.2ZM610.4,47.9C610.9,48.4 611.4,48.7 611.9,48.8C612.4,48.8 612.8,48.7 613.2,48.4C613.6,48.1 613.8,47.6 613.7,47.1C613.7,46.6 613.4,46.1 612.9,45.6C612.4,45.1 611.9,44.8 611.4,44.7C610.9,44.7 610.5,44.8 610.1,45.2C609.7,45.6 609.5,46 609.5,46.5C609.6,46.9 609.9,47.4 610.4,47.9M609.4,48.8C609,48.3 608.7,47.9 608.5,47.4C608.4,47.1 608.3,46.7 608.3,46.4C608.3,46 608.4,45.7 608.5,45.4C608.7,45 609,44.6 609.3,44.3C610,43.7 610.7,43.4 611.5,43.4C612.3,43.4 613.1,43.8 613.8,44.6C614.5,45.4 614.8,46.1 614.8,46.9C614.8,47.7 614.4,48.4 613.8,49.1C613.1,49.7 612.4,50 611.6,50C610.9,50 610.1,49.6 609.4,48.8M608.3,55.1L603.5,50.9L606.4,47.6L607.2,48.3L605.2,50.6L606.3,51.6L608,49.6L608.8,50.3L607.1,52.3L609.1,54.1L608.3,55.1ZM603,58.9L603.6,57.8C604,58 604.3,58 604.6,58C604.9,57.9 605.1,57.7 605.4,57.4C605.6,57.1 605.8,56.8 605.7,56.5C605.7,56.2 605.6,56 605.4,55.9C605.3,55.8 605.1,55.8 605,55.8C604.9,55.8 604.7,55.9 604.5,56C604.4,56.1 604.1,56.3 603.7,56.7C603.2,57.2 602.7,57.4 602.3,57.5C601.8,57.6 601.3,57.5 600.9,57.2C600.6,57 600.4,56.8 600.3,56.4C600.2,56.1 600.2,55.8 600.2,55.4C600.3,55 600.5,54.7 600.8,54.3C601.3,53.6 601.8,53.3 602.3,53.1C602.8,53 603.3,53.1 603.8,53.4L603.1,54.5C602.8,54.4 602.6,54.3 602.3,54.4C602.1,54.5 601.9,54.6 601.6,54.9C601.4,55.2 601.3,55.5 601.3,55.7C601.3,55.9 601.4,56 601.5,56.1C601.6,56.2 601.8,56.2 601.9,56.2C602.1,56.1 602.4,55.9 602.9,55.5C603.4,55.1 603.8,54.8 604.1,54.6C604.4,54.5 604.7,54.4 605,54.4C605.3,54.4 605.6,54.6 606,54.8C606.3,55 606.5,55.3 606.7,55.6C606.8,56 606.9,56.3 606.8,56.7C606.7,57.1 606.5,57.5 606.2,58C605.7,58.7 605.2,59 604.7,59.2C604.2,59.4 603.6,59.3 603,58.9M601.7,65.5L596.2,62.3L596.8,61.2L601.8,61.1L598.1,59L598.7,58L604.2,61.2L603.6,62.3L598.7,62.4L602.3,64.5L601.7,65.5ZM598.2,67.2L595.7,67L597.5,68.8L598.2,67.2ZM601.4,66.2L600.8,67.5L599.3,67.4L598.2,69.7L599.3,70.8L598.7,72L594,67L594.6,65.8L601.4,66.2ZM593.9,75L594.2,74.1C594.4,73.5 594.5,73.1 594.5,73C594.5,72.8 594.5,72.7 594.4,72.6C594.3,72.5 594.2,72.4 594,72.3C593.8,72.2 593.6,72.2 593.4,72.3C593.2,72.4 593.1,72.5 593,72.7C593,72.8 592.8,73.1 592.7,73.6L592.4,74.5L593.9,75ZM597,77.4L591,75.3L591.9,72.8C592.1,72.2 592.3,71.7 592.5,71.5C592.7,71.2 593,71.1 593.3,71C593.6,70.9 594,70.9 594.3,71.1C594.8,71.2 595.1,71.5 595.3,71.9C595.5,72.3 595.5,72.7 595.4,73.3C595.6,73.1 595.9,72.9 596.1,72.8C596.3,72.7 596.7,72.6 597.3,72.4L598.7,72.1L598.2,73.5L596.6,73.9C596,74.1 595.7,74.2 595.5,74.2C595.3,74.3 595.2,74.4 595.1,74.5C595,74.6 594.9,74.8 594.8,75.1L594.7,75.3L597.2,76.2L597,77.4ZM596.2,81.4L591,80.2L590.6,82L589.5,81.8L590.6,76.9L591.7,77.1L591.3,78.9L596.5,80.1L596.2,81.4Z" style="fill:rgb(189,38,41);fill-rule:nonzero;"/>
        <path d="M658.3,38.9C643,38.9 629.2,45.1 619.2,55C609.2,65 603,78.8 603,94C603,109.2 609.2,123 619.2,133C629.2,143 643,149.2 658.3,149.2C673.6,149.2 687.4,143 697.4,133.1C707.4,123.1 713.6,109.3 713.6,94.1C713.6,78.9 707.4,65.1 697.4,55.1C687.4,45.1 673.5,38.9 658.3,38.9M658.3,37.4C674,37.4 688.2,43.7 698.5,54C708.8,64.2 715.1,78.4 715.1,94.1C715.1,109.7 708.7,123.9 698.5,134.2C688.2,144.5 674,150.8 658.3,150.8C642.6,150.8 628.4,144.5 618.1,134.2C607.8,124 601.5,109.8 601.5,94.1C601.5,78.5 607.9,64.3 618.1,54C628.4,43.7 642.6,37.4 658.3,37.4Z" style="fill:rgb(2,2,2);fill-rule:nonzero;"/>
        <path d="M723.2,108.3L723.5,105.7L726.3,104.5L723.9,102.6L724.2,100L728.3,103.5L731.5,103.9L731.2,106.3L728,105.9L723.2,108.3ZM721,115.6L722.9,108.6L724.8,109.1L724.2,111.5L729.8,113L729.2,115.3L723.6,113.8L723,116.1L721,115.6ZM719.5,119.1L720.4,116.9L727.6,119.7L726.7,121.9L719.5,119.1ZM720.4,129.2L721.3,127.1C721.7,127.2 721.9,127.3 722.2,127.2C722.6,127.1 722.9,126.9 723.1,126.5C723.3,126.2 723.3,125.9 723.3,125.7C723.2,125.5 723.1,125.3 722.9,125.2C722.7,125.1 722.5,125.1 722.3,125.2C722.1,125.3 721.8,125.6 721.3,126.1C720.6,126.9 720,127.5 719.4,127.7C718.8,127.9 718.3,127.9 717.8,127.6C717.4,127.4 717.2,127.1 716.9,126.8C716.7,126.4 716.6,126 716.6,125.5C716.6,125 716.8,124.4 717.2,123.7C717.7,122.8 718.2,122.2 718.7,121.9C719.3,121.6 719.9,121.6 720.7,121.9L719.8,124C719.5,123.9 719.2,123.9 718.9,124C718.7,124.1 718.5,124.3 718.3,124.6C718.2,124.8 718.1,125.1 718.2,125.2C718.2,125.4 718.3,125.5 718.5,125.6C718.6,125.7 718.7,125.7 718.9,125.6C719,125.5 719.2,125.3 719.5,125C720.2,124.2 720.7,123.6 721.1,123.3C721.5,123 721.9,122.8 722.3,122.8C722.7,122.8 723.1,122.8 723.5,123C723.9,123.2 724.3,123.6 724.5,124C724.7,124.4 724.9,124.9 724.8,125.5C724.8,126 724.6,126.6 724.2,127.3C723.6,128.5 723,129.2 722.3,129.4C721.8,129.5 721.1,129.5 720.4,129.2M715.3,133.5L715.8,132.6C715.9,132.5 715.9,132.3 716,132C716.1,131.8 716.1,131.7 716,131.5C715.9,131.3 715.8,131.2 715.7,131.1C715.5,131 715.3,130.9 715.1,131C714.9,131.1 714.7,131.3 714.5,131.7L713.9,132.6L715.3,133.5ZM717.9,138L711.3,133.9L713.4,130.5C713.8,129.9 714.1,129.4 714.5,129.2C714.8,128.9 715.2,128.8 715.6,128.8C716,128.8 716.4,128.9 716.9,129.2C717.3,129.4 717.5,129.7 717.7,130C717.9,130.3 717.9,130.7 717.9,131C717.9,131.2 717.8,131.5 717.7,131.9C717.9,131.7 718.1,131.6 718.3,131.5C718.4,131.5 718.6,131.4 718.8,131.4L719.4,131.4L721.9,131.6L720.5,133.9L717.8,133.7C717.5,133.7 717.2,133.7 717.1,133.8C716.9,133.9 716.8,134 716.6,134.2L716.5,134.4L719.2,136.1L717.9,138ZM706,139.8L710.1,134.9L711.4,136L708.8,139.1L709.7,139.9L712.1,137.1L713.3,138.1L710.9,140.9L712.1,141.9L714.8,138.7L716.1,139.8L711.9,144.8L706,139.8ZM699.4,145.9L701.3,144.3L706.3,147.4L703.9,142.1L705.7,140.5L708.6,148.2L706.6,149.9L699.4,145.9ZM696.3,148.1L698.2,146.7L702.8,153L700.9,154.4L696.3,148.1ZM688.3,152.9L690.2,151.8L694.9,154L692.8,150.3L694.8,149.2L698.7,155.9L696.7,157L692.1,154.8L694.2,158.5L692.2,159.6L688.3,152.9ZM684.7,154.6L686.9,153.7L688.6,158C688.8,158.4 688.9,158.8 688.9,159.3C688.9,159.7 688.8,160.1 688.7,160.5C688.5,160.9 688.3,161.2 688,161.5C687.6,161.8 687.2,162.1 686.5,162.4C686.1,162.5 685.8,162.7 685.3,162.8C684.9,162.9 684.5,163 684.1,162.9C683.8,162.9 683.4,162.8 683.1,162.6C682.8,162.4 682.5,162.2 682.3,162C682,161.6 681.7,161.2 681.6,160.9L679.9,156.6L682.1,155.7L683.9,160.1C684.1,160.5 684.3,160.8 684.6,160.9C684.9,161 685.2,161 685.6,160.9C686,160.7 686.2,160.5 686.4,160.2C686.5,159.9 686.5,159.5 686.4,159.2L684.7,154.6ZM669.7,159.1L672,158.6L673.3,164.3L676.9,163.5L677.3,165.4L671.3,166.8L669.7,159.1ZM662.2,160.1L664.6,159.8L665.4,165.6L669.1,165.1L669.4,167L663.3,167.9L662.2,160.1ZM657.7,160L660.1,159.9L660.4,167.6L658,167.7L657.7,160ZM648.5,159.4L650.9,159.6L650.7,162.3L653.3,162.5L653.5,159.8L655.9,160L655.2,167.7L652.8,167.5L653.1,164.4L650.5,164.2L650.2,167.3L647.8,167.1L648.5,159.4ZM639.9,162.5L639.8,159.6L638.2,162L639.9,162.5ZM640,164.2L637.4,163.5L636.7,164.6L634.4,163.9L639.3,157.3L641.8,158L642.5,166.2L640.1,165.5L640,164.2ZM630.4,157.4L631.3,157.8C631.4,157.8 631.6,157.9 631.9,158C632.1,158 632.2,158 632.4,157.9C632.5,157.8 632.7,157.7 632.7,157.6C632.8,157.4 632.8,157.2 632.7,157C632.6,156.8 632.4,156.6 632,156.4L631,156L630.4,157.4ZM626.3,160.6L629.6,153.6L633.2,155.3C633.9,155.6 634.4,155.9 634.7,156.2C635,156.5 635.2,156.8 635.3,157.2C635.4,157.6 635.3,158 635.1,158.5C634.9,158.9 634.7,159.2 634.4,159.4C634.1,159.6 633.8,159.7 633.4,159.8C633.2,159.8 632.9,159.8 632.5,159.7C632.7,159.9 632.9,160.1 632.9,160.2C633,160.3 633,160.5 633.1,160.7C633.2,161 633.2,161.2 633.2,161.3L633.3,163.8L630.8,162.7L630.6,160C630.6,159.7 630.5,159.4 630.5,159.3C630.4,159.1 630.2,159 630,158.9L629.8,158.8L628.5,161.6L626.3,160.6ZM622.4,149.6L628,152.8L627.2,154.2L623.7,152.2L623.1,153.3L626.3,155.2L625.5,156.6L622.3,154.8L621.5,156.1L625.1,158.2L624.2,159.7L618.5,156.4L622.4,149.6ZM614.1,149.2L615.3,151C614.8,151.3 614.3,151.6 613.8,151.7C613.3,151.8 612.8,151.8 612.4,151.6C611.9,151.5 611.4,151.2 610.9,150.7C610.3,150.1 609.8,149.6 609.6,149.1C609.4,148.6 609.3,147.9 609.4,147.2C609.5,146.5 609.9,145.8 610.5,145C611.3,144 612.3,143.5 613.2,143.4C614.2,143.3 615.1,143.7 616.1,144.5C616.8,145.1 617.3,145.8 617.4,146.4C617.6,147.1 617.5,147.8 617.1,148.6L615.2,147.6C615.3,147.4 615.4,147.2 615.4,147.1C615.4,146.9 615.4,146.7 615.3,146.5C615.2,146.3 615.1,146.1 614.9,146C614.5,145.6 614,145.5 613.5,145.7C613.1,145.8 612.7,146.1 612.3,146.6C611.7,147.2 611.4,147.8 611.4,148.2C611.4,148.6 611.6,149 611.9,149.3C612.2,149.6 612.6,149.7 612.9,149.7C613.3,149.7 613.7,149.5 614.1,149.2M610.1,139.3L611.7,141L606,146.3L604.4,144.6L610.1,139.3ZM604,132L605.5,133.9L603.4,135.6L605,137.7L607.1,136L608.6,137.9L602.5,142.7L601,140.8L603.5,138.9L601.9,136.8L599.4,138.7L597.9,136.8L604,132ZM598.3,129.1L598.6,129.6C598.8,130 599.1,130.3 599.3,130.3C599.5,130.4 599.8,130.4 600,130.3C600.2,130.2 600.4,130 600.4,129.8C600.5,129.6 600.4,129.3 600.2,128.9L599.9,128.3L598.3,129.1ZM600,125.4L601.9,128.9C602.3,129.7 602.5,130.3 602.3,130.9C602.2,131.5 601.7,131.9 601.1,132.3C600.4,132.7 599.8,132.8 599.2,132.6C598.6,132.4 598,131.9 597.6,131L597,129.9L594.5,131.3L593.3,129.2L600,125.4ZM593.6,123.4L595.8,121.5L592.9,121.8L593.6,123.4ZM592.3,124.5L591.2,122L589.9,122.2L588.9,120L597.2,119.5L598.3,121.9L592.4,127.7L591.4,125.4L592.3,124.5ZM591.5,112.7L591.8,113.7C591.8,113.8 591.9,114 592.1,114.3C592.2,114.4 592.3,114.5 592.4,114.6C592.5,114.7 592.7,114.7 592.9,114.6C593.1,114.5 593.3,114.4 593.4,114.2C593.5,114 593.5,113.7 593.4,113.3L593.1,112.3L591.5,112.7ZM586.4,111.6L593.9,109.6L594.9,113.4C595.1,114.1 595.2,114.7 595.2,115.1C595.2,115.5 595,115.9 594.8,116.2C594.5,116.5 594.2,116.7 593.7,116.9C593.3,117 592.9,117 592.5,116.9C592.2,116.8 591.8,116.6 591.6,116.4C591.4,116.2 591.3,116 591.1,115.7C591.1,116 591,116.2 591,116.4C591,116.5 590.9,116.7 590.7,116.9C590.5,117.1 590.4,117.3 590.3,117.4L588.4,119.1L587.7,116.5L589.7,114.7C590,114.5 590.1,114.3 590.2,114.1C590.3,113.9 590.3,113.7 590.2,113.5L590.1,113.3L587.1,114.1L586.4,111.6ZM587.9,105.1L589.5,104.8L590.1,108.4L586.8,109C586.2,108.4 585.8,107.8 585.5,107.3C585.2,106.8 585,106.2 584.9,105.4C584.7,104.5 584.8,103.7 585,103.1C585.2,102.5 585.6,101.9 586.1,101.5C586.7,101.1 587.3,100.8 588.1,100.7C588.9,100.6 589.7,100.6 590.4,100.8C591.1,101 591.6,101.4 592.1,102.1C592.4,102.6 592.7,103.2 592.8,104.1C592.9,104.9 593,105.6 592.9,106C592.8,106.4 592.6,106.8 592.4,107.2C592.1,107.5 591.8,107.8 591.3,108L590.5,105.8C590.8,105.6 591,105.4 591.1,105.2C591.2,105 591.2,104.7 591.2,104.3C591.1,103.8 590.9,103.4 590.4,103.2C590,103 589.4,102.9 588.6,103C587.8,103.1 587.2,103.4 586.9,103.8C586.6,104.2 586.5,104.6 586.6,105.2C586.6,105.5 586.7,105.7 586.8,105.9C586.9,106.1 587.1,106.4 587.3,106.7L588,106.6L587.9,105.1Z" style="fill:white;fill-rule:nonzero;"/>
    </g>
</svg>
